<svg xmlns="http://www.w3.org/2000/svg" width="1600" height="940" viewBox="0 0 1600 940">
<rect width="100%" height="100%" fill="#fbfaf5"/>
<text x="800" y="64" text-anchor="middle" font-family="Helvetica, Arial, sans-serif" font-size="34" font-weight="700" fill="#151515">pi0.5 checkpoint evolution by task type</text>
<text x="800" y="102" text-anchor="middle" font-family="Helvetica, Arial, sans-serif" font-size="20" fill="#474747">Subtask completion across RoboCerebra evaluation categories</text>
<text x="800" y="130" text-anchor="middle" font-family="Helvetica, Arial, sans-serif" font-size="14" fill="#666">Step 0 uses the previous pi0.5 evaluation as the baseline</text>
<rect x="140" y="175" width="1145" height="590" rx="16" fill="#ffffff" stroke="#ddd8ca"/>
<line x1="140" y1="765.0" x2="1285" y2="765.0" stroke="#e8e4d8" stroke-dasharray="5 6"/>
<text x="122" y="771.0" text-anchor="end" font-family="Helvetica, Arial, sans-serif" font-size="16" fill="#555">0</text>
<line x1="140" y1="666.7" x2="1285" y2="666.7" stroke="#e8e4d8" stroke-dasharray="5 6"/>
<text x="122" y="672.7" text-anchor="end" font-family="Helvetica, Arial, sans-serif" font-size="16" fill="#555">5</text>
<line x1="140" y1="568.3" x2="1285" y2="568.3" stroke="#e8e4d8" stroke-dasharray="5 6"/>
<text x="122" y="574.3" text-anchor="end" font-family="Helvetica, Arial, sans-serif" font-size="16" fill="#555">10</text>
<line x1="140" y1="470.0" x2="1285" y2="470.0" stroke="#e8e4d8" stroke-dasharray="5 6"/>
<text x="122" y="476.0" text-anchor="end" font-family="Helvetica, Arial, sans-serif" font-size="16" fill="#555">15</text>
<line x1="140" y1="371.7" x2="1285" y2="371.7" stroke="#e8e4d8" stroke-dasharray="5 6"/>
<text x="122" y="377.7" text-anchor="end" font-family="Helvetica, Arial, sans-serif" font-size="16" fill="#555">20</text>
<line x1="140" y1="273.3" x2="1285" y2="273.3" stroke="#e8e4d8" stroke-dasharray="5 6"/>
<text x="122" y="279.3" text-anchor="end" font-family="Helvetica, Arial, sans-serif" font-size="16" fill="#555">25</text>
<line x1="140" y1="175.0" x2="1285" y2="175.0" stroke="#e8e4d8" stroke-dasharray="5 6"/>
<text x="122" y="181.0" text-anchor="end" font-family="Helvetica, Arial, sans-serif" font-size="16" fill="#555">30</text>
<line x1="140.0" y1="175" x2="140.0" y2="765" stroke="#efeadc" stroke-width="1"/>
<text x="140.0" y="795" text-anchor="middle" font-family="Helvetica, Arial, sans-serif" font-size="14" fill="#555">0</text>
<line x1="197.2" y1="175" x2="197.2" y2="765" stroke="#efeadc" stroke-width="1"/>
<text x="197.2" y="795" text-anchor="middle" font-family="Helvetica, Arial, sans-serif" font-size="14" fill="#555">5k</text>
<line x1="254.5" y1="175" x2="254.5" y2="765" stroke="#efeadc" stroke-width="1"/>
<text x="254.5" y="795" text-anchor="middle" font-family="Helvetica, Arial, sans-serif" font-size="14" fill="#555">10k</text>
<line x1="311.8" y1="175" x2="311.8" y2="765" stroke="#efeadc" stroke-width="1"/>
<text x="311.8" y="795" text-anchor="middle" font-family="Helvetica, Arial, sans-serif" font-size="14" fill="#555">15k</text>
<line x1="426.2" y1="175" x2="426.2" y2="765" stroke="#efeadc" stroke-width="1"/>
<text x="426.2" y="795" text-anchor="middle" font-family="Helvetica, Arial, sans-serif" font-size="14" fill="#555">25k</text>
<line x1="540.8" y1="175" x2="540.8" y2="765" stroke="#efeadc" stroke-width="1"/>
<text x="540.8" y="795" text-anchor="middle" font-family="Helvetica, Arial, sans-serif" font-size="14" fill="#555">35k</text>
<line x1="598.0" y1="175" x2="598.0" y2="765" stroke="#efeadc" stroke-width="1"/>
<text x="598.0" y="795" text-anchor="middle" font-family="Helvetica, Arial, sans-serif" font-size="14" fill="#555">40k</text>
<line x1="655.2" y1="175" x2="655.2" y2="765" stroke="#efeadc" stroke-width="1"/>
<text x="655.2" y="795" text-anchor="middle" font-family="Helvetica, Arial, sans-serif" font-size="14" fill="#555">45k</text>
<line x1="712.5" y1="175" x2="712.5" y2="765" stroke="#efeadc" stroke-width="1"/>
<text x="712.5" y="795" text-anchor="middle" font-family="Helvetica, Arial, sans-serif" font-size="14" fill="#555">50k</text>
<line x1="769.8" y1="175" x2="769.8" y2="765" stroke="#efeadc" stroke-width="1"/>
<text x="769.8" y="795" text-anchor="middle" font-family="Helvetica, Arial, sans-serif" font-size="14" fill="#555">55k</text>
<line x1="884.2" y1="175" x2="884.2" y2="765" stroke="#efeadc" stroke-width="1"/>
<text x="884.2" y="795" text-anchor="middle" font-family="Helvetica, Arial, sans-serif" font-size="14" fill="#555">65k</text>
<line x1="998.8" y1="175" x2="998.8" y2="765" stroke="#efeadc" stroke-width="1"/>
<text x="998.8" y="795" text-anchor="middle" font-family="Helvetica, Arial, sans-serif" font-size="14" fill="#555">75k</text>
<line x1="1113.2" y1="175" x2="1113.2" y2="765" stroke="#efeadc" stroke-width="1"/>
<text x="1113.2" y="795" text-anchor="middle" font-family="Helvetica, Arial, sans-serif" font-size="14" fill="#555">85k</text>
<line x1="1170.5" y1="175" x2="1170.5" y2="765" stroke="#efeadc" stroke-width="1"/>
<text x="1170.5" y="795" text-anchor="middle" font-family="Helvetica, Arial, sans-serif" font-size="14" fill="#555">90k</text>
<line x1="1227.8" y1="175" x2="1227.8" y2="765" stroke="#efeadc" stroke-width="1"/>
<text x="1227.8" y="795" text-anchor="middle" font-family="Helvetica, Arial, sans-serif" font-size="14" fill="#555">95k</text>
<line x1="1285.0" y1="175" x2="1285.0" y2="765" stroke="#efeadc" stroke-width="1"/>
<text x="1285.0" y="795" text-anchor="middle" font-family="Helvetica, Arial, sans-serif" font-size="14" fill="#555">100k</text>
<polyline points="140.0,532.1 197.2,454.5 254.5,506.2 311.8,532.1 426.2,480.4 540.8,428.6 598.0,454.5 655.2,454.5 712.5,480.4 769.8,428.6 884.2,454.5 998.8,480.4 1113.2,480.4 1170.5,428.6 1227.8,454.5 1285.0,454.5" fill="none" stroke="#4C78A8" stroke-width="4" stroke-linejoin="round" stroke-linecap="round" opacity="0.95"/>
<circle cx="140.0" cy="532.1" r="5" fill="#ffffff" stroke="#4C78A8" stroke-width="3"/>
<circle cx="197.2" cy="454.5" r="5" fill="#ffffff" stroke="#4C78A8" stroke-width="3"/>
<circle cx="254.5" cy="506.2" r="5" fill="#ffffff" stroke="#4C78A8" stroke-width="3"/>
<circle cx="311.8" cy="532.1" r="5" fill="#ffffff" stroke="#4C78A8" stroke-width="3"/>
<circle cx="426.2" cy="480.4" r="5" fill="#ffffff" stroke="#4C78A8" stroke-width="3"/>
<circle cx="540.8" cy="428.6" r="5" fill="#ffffff" stroke="#4C78A8" stroke-width="3"/>
<circle cx="598.0" cy="454.5" r="5" fill="#ffffff" stroke="#4C78A8" stroke-width="3"/>
<circle cx="655.2" cy="454.5" r="5" fill="#ffffff" stroke="#4C78A8" stroke-width="3"/>
<circle cx="712.5" cy="480.4" r="5" fill="#ffffff" stroke="#4C78A8" stroke-width="3"/>
<circle cx="769.8" cy="428.6" r="5" fill="#ffffff" stroke="#4C78A8" stroke-width="3"/>
<circle cx="884.2" cy="454.5" r="5" fill="#ffffff" stroke="#4C78A8" stroke-width="3"/>
<circle cx="998.8" cy="480.4" r="5" fill="#ffffff" stroke="#4C78A8" stroke-width="3"/>
<circle cx="1113.2" cy="480.4" r="5" fill="#ffffff" stroke="#4C78A8" stroke-width="3"/>
<circle cx="1170.5" cy="428.6" r="5" fill="#ffffff" stroke="#4C78A8" stroke-width="3"/>
<circle cx="1227.8" cy="454.5" r="5" fill="#ffffff" stroke="#4C78A8" stroke-width="3"/>
<circle cx="1285.0" cy="454.5" r="5" fill="#ffffff" stroke="#4C78A8" stroke-width="3"/>
<polyline points="140.0,432.2 197.2,330.1 254.5,273.3 311.8,386.8 426.2,311.2 540.8,273.3 598.0,349.0 655.2,273.3 712.5,330.1 769.8,330.1 884.2,405.7 998.8,292.2 1113.2,349.0 1170.5,349.0 1227.8,367.9 1285.0,367.9" fill="none" stroke="#E45756" stroke-width="4" stroke-linejoin="round" stroke-linecap="round" opacity="0.95"/>
<circle cx="140.0" cy="432.2" r="5" fill="#ffffff" stroke="#E45756" stroke-width="3"/>
<circle cx="197.2" cy="330.1" r="5" fill="#ffffff" stroke="#E45756" stroke-width="3"/>
<circle cx="254.5" cy="273.3" r="5" fill="#ffffff" stroke="#E45756" stroke-width="3"/>
<circle cx="311.8" cy="386.8" r="5" fill="#ffffff" stroke="#E45756" stroke-width="3"/>
<circle cx="426.2" cy="311.2" r="5" fill="#ffffff" stroke="#E45756" stroke-width="3"/>
<circle cx="540.8" cy="273.3" r="5" fill="#ffffff" stroke="#E45756" stroke-width="3"/>
<circle cx="598.0" cy="349.0" r="5" fill="#ffffff" stroke="#E45756" stroke-width="3"/>
<circle cx="655.2" cy="273.3" r="5" fill="#ffffff" stroke="#E45756" stroke-width="3"/>
<circle cx="712.5" cy="330.1" r="5" fill="#ffffff" stroke="#E45756" stroke-width="3"/>
<circle cx="769.8" cy="330.1" r="5" fill="#ffffff" stroke="#E45756" stroke-width="3"/>
<circle cx="884.2" cy="405.7" r="5" fill="#ffffff" stroke="#E45756" stroke-width="3"/>
<circle cx="998.8" cy="292.2" r="5" fill="#ffffff" stroke="#E45756" stroke-width="3"/>
<circle cx="1113.2" cy="349.0" r="5" fill="#ffffff" stroke="#E45756" stroke-width="3"/>
<circle cx="1170.5" cy="349.0" r="5" fill="#ffffff" stroke="#E45756" stroke-width="3"/>
<circle cx="1227.8" cy="367.9" r="5" fill="#ffffff" stroke="#E45756" stroke-width="3"/>
<circle cx="1285.0" cy="367.9" r="5" fill="#ffffff" stroke="#E45756" stroke-width="3"/>
<polyline points="140.0,470.8 197.2,401.4 254.5,434.5 311.8,434.5 426.2,451.0 540.8,351.8 598.0,368.4 655.2,434.5 712.5,401.4 769.8,417.9 884.2,451.0 998.8,384.9 1113.2,434.5 1170.5,384.9 1227.8,434.5 1285.0,417.9" fill="none" stroke="#72B7B2" stroke-width="4" stroke-linejoin="round" stroke-linecap="round" opacity="0.95"/>
<circle cx="140.0" cy="470.8" r="5" fill="#ffffff" stroke="#72B7B2" stroke-width="3"/>
<circle cx="197.2" cy="401.4" r="5" fill="#ffffff" stroke="#72B7B2" stroke-width="3"/>
<circle cx="254.5" cy="434.5" r="5" fill="#ffffff" stroke="#72B7B2" stroke-width="3"/>
<circle cx="311.8" cy="434.5" r="5" fill="#ffffff" stroke="#72B7B2" stroke-width="3"/>
<circle cx="426.2" cy="451.0" r="5" fill="#ffffff" stroke="#72B7B2" stroke-width="3"/>
<circle cx="540.8" cy="351.8" r="5" fill="#ffffff" stroke="#72B7B2" stroke-width="3"/>
<circle cx="598.0" cy="368.4" r="5" fill="#ffffff" stroke="#72B7B2" stroke-width="3"/>
<circle cx="655.2" cy="434.5" r="5" fill="#ffffff" stroke="#72B7B2" stroke-width="3"/>
<circle cx="712.5" cy="401.4" r="5" fill="#ffffff" stroke="#72B7B2" stroke-width="3"/>
<circle cx="769.8" cy="417.9" r="5" fill="#ffffff" stroke="#72B7B2" stroke-width="3"/>
<circle cx="884.2" cy="451.0" r="5" fill="#ffffff" stroke="#72B7B2" stroke-width="3"/>
<circle cx="998.8" cy="384.9" r="5" fill="#ffffff" stroke="#72B7B2" stroke-width="3"/>
<circle cx="1113.2" cy="434.5" r="5" fill="#ffffff" stroke="#72B7B2" stroke-width="3"/>
<circle cx="1170.5" cy="384.9" r="5" fill="#ffffff" stroke="#72B7B2" stroke-width="3"/>
<circle cx="1227.8" cy="434.5" r="5" fill="#ffffff" stroke="#72B7B2" stroke-width="3"/>
<circle cx="1285.0" cy="417.9" r="5" fill="#ffffff" stroke="#72B7B2" stroke-width="3"/>
<polyline points="140.0,474.1 197.2,396.2 254.5,396.2 311.8,437.2 426.2,457.7 540.8,375.8 598.0,457.7 655.2,416.7 712.5,416.7 769.8,437.2 884.2,416.7 998.8,375.8 1113.2,375.8 1170.5,437.2 1227.8,478.2 1285.0,375.8" fill="none" stroke="#F58518" stroke-width="4" stroke-linejoin="round" stroke-linecap="round" opacity="0.95"/>
<circle cx="140.0" cy="474.1" r="5" fill="#ffffff" stroke="#F58518" stroke-width="3"/>
<circle cx="197.2" cy="396.2" r="5" fill="#ffffff" stroke="#F58518" stroke-width="3"/>
<circle cx="254.5" cy="396.2" r="5" fill="#ffffff" stroke="#F58518" stroke-width="3"/>
<circle cx="311.8" cy="437.2" r="5" fill="#ffffff" stroke="#F58518" stroke-width="3"/>
<circle cx="426.2" cy="457.7" r="5" fill="#ffffff" stroke="#F58518" stroke-width="3"/>
<circle cx="540.8" cy="375.8" r="5" fill="#ffffff" stroke="#F58518" stroke-width="3"/>
<circle cx="598.0" cy="457.7" r="5" fill="#ffffff" stroke="#F58518" stroke-width="3"/>
<circle cx="655.2" cy="416.7" r="5" fill="#ffffff" stroke="#F58518" stroke-width="3"/>
<circle cx="712.5" cy="416.7" r="5" fill="#ffffff" stroke="#F58518" stroke-width="3"/>
<circle cx="769.8" cy="437.2" r="5" fill="#ffffff" stroke="#F58518" stroke-width="3"/>
<circle cx="884.2" cy="416.7" r="5" fill="#ffffff" stroke="#F58518" stroke-width="3"/>
<circle cx="998.8" cy="375.8" r="5" fill="#ffffff" stroke="#F58518" stroke-width="3"/>
<circle cx="1113.2" cy="375.8" r="5" fill="#ffffff" stroke="#F58518" stroke-width="3"/>
<circle cx="1170.5" cy="437.2" r="5" fill="#ffffff" stroke="#F58518" stroke-width="3"/>
<circle cx="1227.8" cy="478.2" r="5" fill="#ffffff" stroke="#F58518" stroke-width="3"/>
<circle cx="1285.0" cy="375.8" r="5" fill="#ffffff" stroke="#F58518" stroke-width="3"/>
<polyline points="140.0,526.6 197.2,467.0 254.5,467.0 311.8,467.0 426.2,496.8 540.8,496.8 598.0,496.8 655.2,496.8 712.5,467.0 769.8,467.0 884.2,437.2 998.8,437.2 1113.2,496.8 1170.5,467.0 1227.8,467.0 1285.0,467.0" fill="none" stroke="#54A24B" stroke-width="4" stroke-linejoin="round" stroke-linecap="round" opacity="0.95"/>
<circle cx="140.0" cy="526.6" r="5" fill="#ffffff" stroke="#54A24B" stroke-width="3"/>
<circle cx="197.2" cy="467.0" r="5" fill="#ffffff" stroke="#54A24B" stroke-width="3"/>
<circle cx="254.5" cy="467.0" r="5" fill="#ffffff" stroke="#54A24B" stroke-width="3"/>
<circle cx="311.8" cy="467.0" r="5" fill="#ffffff" stroke="#54A24B" stroke-width="3"/>
<circle cx="426.2" cy="496.8" r="5" fill="#ffffff" stroke="#54A24B" stroke-width="3"/>
<circle cx="540.8" cy="496.8" r="5" fill="#ffffff" stroke="#54A24B" stroke-width="3"/>
<circle cx="598.0" cy="496.8" r="5" fill="#ffffff" stroke="#54A24B" stroke-width="3"/>
<circle cx="655.2" cy="496.8" r="5" fill="#ffffff" stroke="#54A24B" stroke-width="3"/>
<circle cx="712.5" cy="467.0" r="5" fill="#ffffff" stroke="#54A24B" stroke-width="3"/>
<circle cx="769.8" cy="467.0" r="5" fill="#ffffff" stroke="#54A24B" stroke-width="3"/>
<circle cx="884.2" cy="437.2" r="5" fill="#ffffff" stroke="#54A24B" stroke-width="3"/>
<circle cx="998.8" cy="437.2" r="5" fill="#ffffff" stroke="#54A24B" stroke-width="3"/>
<circle cx="1113.2" cy="496.8" r="5" fill="#ffffff" stroke="#54A24B" stroke-width="3"/>
<circle cx="1170.5" cy="467.0" r="5" fill="#ffffff" stroke="#54A24B" stroke-width="3"/>
<circle cx="1227.8" cy="467.0" r="5" fill="#ffffff" stroke="#54A24B" stroke-width="3"/>
<circle cx="1285.0" cy="467.0" r="5" fill="#ffffff" stroke="#54A24B" stroke-width="3"/>
<polyline points="140.0,490.7 197.2,376.8 254.5,480.4 311.8,454.5 426.2,454.5 540.8,428.6 598.0,428.6 655.2,480.4 712.5,506.2 769.8,454.5 884.2,402.7 998.8,506.2 1113.2,454.5 1170.5,428.6 1227.8,454.5 1285.0,428.6" fill="none" stroke="#B279A2" stroke-width="4" stroke-linejoin="round" stroke-linecap="round" opacity="0.95"/>
<circle cx="140.0" cy="490.7" r="5" fill="#ffffff" stroke="#B279A2" stroke-width="3"/>
<circle cx="197.2" cy="376.8" r="5" fill="#ffffff" stroke="#B279A2" stroke-width="3"/>
<circle cx="254.5" cy="480.4" r="5" fill="#ffffff" stroke="#B279A2" stroke-width="3"/>
<circle cx="311.8" cy="454.5" r="5" fill="#ffffff" stroke="#B279A2" stroke-width="3"/>
<circle cx="426.2" cy="454.5" r="5" fill="#ffffff" stroke="#B279A2" stroke-width="3"/>
<circle cx="540.8" cy="428.6" r="5" fill="#ffffff" stroke="#B279A2" stroke-width="3"/>
<circle cx="598.0" cy="428.6" r="5" fill="#ffffff" stroke="#B279A2" stroke-width="3"/>
<circle cx="655.2" cy="480.4" r="5" fill="#ffffff" stroke="#B279A2" stroke-width="3"/>
<circle cx="712.5" cy="506.2" r="5" fill="#ffffff" stroke="#B279A2" stroke-width="3"/>
<circle cx="769.8" cy="454.5" r="5" fill="#ffffff" stroke="#B279A2" stroke-width="3"/>
<circle cx="884.2" cy="402.7" r="5" fill="#ffffff" stroke="#B279A2" stroke-width="3"/>
<circle cx="998.8" cy="506.2" r="5" fill="#ffffff" stroke="#B279A2" stroke-width="3"/>
<circle cx="1113.2" cy="454.5" r="5" fill="#ffffff" stroke="#B279A2" stroke-width="3"/>
<circle cx="1170.5" cy="428.6" r="5" fill="#ffffff" stroke="#B279A2" stroke-width="3"/>
<circle cx="1227.8" cy="454.5" r="5" fill="#ffffff" stroke="#B279A2" stroke-width="3"/>
<circle cx="1285.0" cy="428.6" r="5" fill="#ffffff" stroke="#B279A2" stroke-width="3"/>
<line x1="1327" y1="191" x2="1361" y2="191" stroke="#4C78A8" stroke-width="5" stroke-linecap="round"/>
<circle cx="1344" cy="191" r="5" fill="#ffffff" stroke="#4C78A8" stroke-width="3"/>
<text x="1375" y="197" font-family="Helvetica, Arial, sans-serif" font-size="18" fill="#222">Ideal</text>
<line x1="1327" y1="233" x2="1361" y2="233" stroke="#E45756" stroke-width="5" stroke-linecap="round"/>
<circle cx="1344" cy="233" r="5" fill="#ffffff" stroke="#E45756" stroke-width="3"/>
<text x="1375" y="239" font-family="Helvetica, Arial, sans-serif" font-size="18" fill="#222">Memory exec.</text>
<line x1="1327" y1="275" x2="1361" y2="275" stroke="#72B7B2" stroke-width="5" stroke-linecap="round"/>
<circle cx="1344" cy="275" r="5" fill="#ffffff" stroke="#72B7B2" stroke-width="3"/>
<text x="1375" y="281" font-family="Helvetica, Arial, sans-serif" font-size="18" fill="#222">Memory expl.</text>
<line x1="1327" y1="317" x2="1361" y2="317" stroke="#F58518" stroke-width="5" stroke-linecap="round"/>
<circle cx="1344" cy="317" r="5" fill="#ffffff" stroke="#F58518" stroke-width="3"/>
<text x="1375" y="323" font-family="Helvetica, Arial, sans-serif" font-size="18" fill="#222">Mix</text>
<line x1="1327" y1="359" x2="1361" y2="359" stroke="#54A24B" stroke-width="5" stroke-linecap="round"/>
<circle cx="1344" cy="359" r="5" fill="#ffffff" stroke="#54A24B" stroke-width="3"/>
<text x="1375" y="365" font-family="Helvetica, Arial, sans-serif" font-size="18" fill="#222">Obs. mismatch</text>
<line x1="1327" y1="401" x2="1361" y2="401" stroke="#B279A2" stroke-width="5" stroke-linecap="round"/>
<circle cx="1344" cy="401" r="5" fill="#ffffff" stroke="#B279A2" stroke-width="3"/>
<text x="1375" y="407" font-family="Helvetica, Arial, sans-serif" font-size="18" fill="#222">Random disturb.</text>
<text x="712.5" y="868" text-anchor="middle" font-family="Helvetica, Arial, sans-serif" font-size="19" fill="#333">Training checkpoint step</text>
<text x="52" y="470.0" transform="rotate(-90 52,470.0)" text-anchor="middle" font-family="Helvetica, Arial, sans-serif" font-size="19" fill="#333">Subtask completion (%)</text>
<text x="140" y="912" font-family="Helvetica, Arial, sans-serif" font-size="14" fill="#666">Note: category curves are noisy because checkpoint runs use fewer trials than the step-0 baseline.</text>
</svg>