<svg xmlns="http://www.w3.org/2000/svg" width="1800" height="940" viewBox="0 0 1800 940">
<rect width="100%" height="100%" fill="#fbfaf5"/>
<text x="900" y="64" text-anchor="middle" font-family="Helvetica, Arial, sans-serif" font-size="34" font-weight="700" fill="#151515">pi0.5 checkpoint heatmap</text>
<text x="900" y="102" text-anchor="middle" font-family="Helvetica, Arial, sans-serif" font-size="20" fill="#474747">Subtask completion by task type and training step</text>
<text x="900" y="130" text-anchor="middle" font-family="Helvetica, Arial, sans-serif" font-size="14" fill="#666">Step 0 uses the previous pi0.5 evaluation as the baseline</text>
<rect x="120" y="180" width="1535" height="605" rx="18" fill="#ffffff" stroke="#ddd8ca"/>
<text x="349.4" y="771.0" text-anchor="middle" font-family="Helvetica, Arial, sans-serif" font-size="14" fill="#555">0</text>
<text x="428.2" y="771.0" text-anchor="middle" font-family="Helvetica, Arial, sans-serif" font-size="14" fill="#555">5k</text>
<text x="507.0" y="771.0" text-anchor="middle" font-family="Helvetica, Arial, sans-serif" font-size="14" fill="#555">10k</text>
<text x="585.8" y="771.0" text-anchor="middle" font-family="Helvetica, Arial, sans-serif" font-size="14" fill="#555">15k</text>
<text x="664.7" y="771.0" text-anchor="middle" font-family="Helvetica, Arial, sans-serif" font-size="14" fill="#555">25k</text>
<text x="743.5" y="771.0" text-anchor="middle" font-family="Helvetica, Arial, sans-serif" font-size="14" fill="#555">35k</text>
<text x="822.3" y="771.0" text-anchor="middle" font-family="Helvetica, Arial, sans-serif" font-size="14" fill="#555">40k</text>
<text x="901.1" y="771.0" text-anchor="middle" font-family="Helvetica, Arial, sans-serif" font-size="14" fill="#555">45k</text>
<text x="979.9" y="771.0" text-anchor="middle" font-family="Helvetica, Arial, sans-serif" font-size="14" fill="#555">50k</text>
<text x="1058.7" y="771.0" text-anchor="middle" font-family="Helvetica, Arial, sans-serif" font-size="14" fill="#555">55k</text>
<text x="1137.5" y="771.0" text-anchor="middle" font-family="Helvetica, Arial, sans-serif" font-size="14" fill="#555">65k</text>
<text x="1216.3" y="771.0" text-anchor="middle" font-family="Helvetica, Arial, sans-serif" font-size="14" fill="#555">75k</text>
<text x="1295.2" y="771.0" text-anchor="middle" font-family="Helvetica, Arial, sans-serif" font-size="14" fill="#555">85k</text>
<text x="1374.0" y="771.0" text-anchor="middle" font-family="Helvetica, Arial, sans-serif" font-size="14" fill="#555">90k</text>
<text x="1452.8" y="771.0" text-anchor="middle" font-family="Helvetica, Arial, sans-serif" font-size="14" fill="#555">95k</text>
<text x="1531.6" y="771.0" text-anchor="middle" font-family="Helvetica, Arial, sans-serif" font-size="14" fill="#555">100k</text>
<text x="144" y="263.8" font-family="Helvetica, Arial, sans-serif" font-size="22" fill="#1f1f1f">Ideal</text>
<rect x="310.0" y="212.0" width="74.8" height="81.5" rx="7" fill="#9eb8b0" stroke="#ffffff" stroke-width="1.5"/>
<text x="347.4" y="259.8" text-anchor="middle" font-family="Helvetica, Arial, sans-serif" font-size="14" font-weight="700" fill="#10212b">11.8</text>
<rect x="388.8" y="212.0" width="74.8" height="81.5" rx="7" fill="#7da3ac" stroke="#ffffff" stroke-width="1.5"/>
<text x="426.2" y="259.8" text-anchor="middle" font-family="Helvetica, Arial, sans-serif" font-size="14" font-weight="700" fill="#10212b">15.8</text>
<rect x="467.6" y="212.0" width="74.8" height="81.5" rx="7" fill="#93b1af" stroke="#ffffff" stroke-width="1.5"/>
<text x="505.0" y="259.8" text-anchor="middle" font-family="Helvetica, Arial, sans-serif" font-size="14" font-weight="700" fill="#10212b">13.2</text>
<rect x="546.4" y="212.0" width="74.8" height="81.5" rx="7" fill="#9eb8b0" stroke="#ffffff" stroke-width="1.5"/>
<text x="583.8" y="259.8" text-anchor="middle" font-family="Helvetica, Arial, sans-serif" font-size="14" font-weight="700" fill="#10212b">11.8</text>
<rect x="625.2" y="212.0" width="74.8" height="81.5" rx="7" fill="#88aaae" stroke="#ffffff" stroke-width="1.5"/>
<text x="662.7" y="259.8" text-anchor="middle" font-family="Helvetica, Arial, sans-serif" font-size="14" font-weight="700" fill="#10212b">14.5</text>
<rect x="704.1" y="212.0" width="74.8" height="81.5" rx="7" fill="#729cab" stroke="#ffffff" stroke-width="1.5"/>
<text x="741.5" y="259.8" text-anchor="middle" font-family="Helvetica, Arial, sans-serif" font-size="14" font-weight="700" fill="#ffffff">17.1</text>
<rect x="782.9" y="212.0" width="74.8" height="81.5" rx="7" fill="#7da3ac" stroke="#ffffff" stroke-width="1.5"/>
<text x="820.3" y="259.8" text-anchor="middle" font-family="Helvetica, Arial, sans-serif" font-size="14" font-weight="700" fill="#10212b">15.8</text>
<rect x="861.7" y="212.0" width="74.8" height="81.5" rx="7" fill="#7da3ac" stroke="#ffffff" stroke-width="1.5"/>
<text x="899.1" y="259.8" text-anchor="middle" font-family="Helvetica, Arial, sans-serif" font-size="14" font-weight="700" fill="#10212b">15.8</text>
<rect x="940.5" y="212.0" width="74.8" height="81.5" rx="7" fill="#88aaae" stroke="#ffffff" stroke-width="1.5"/>
<text x="977.9" y="259.8" text-anchor="middle" font-family="Helvetica, Arial, sans-serif" font-size="14" font-weight="700" fill="#10212b">14.5</text>
<rect x="1019.3" y="212.0" width="74.8" height="81.5" rx="7" fill="#729cab" stroke="#ffffff" stroke-width="1.5"/>
<text x="1056.7" y="259.8" text-anchor="middle" font-family="Helvetica, Arial, sans-serif" font-size="14" font-weight="700" fill="#ffffff">17.1</text>
<rect x="1098.1" y="212.0" width="74.8" height="81.5" rx="7" fill="#7da3ac" stroke="#ffffff" stroke-width="1.5"/>
<text x="1135.5" y="259.8" text-anchor="middle" font-family="Helvetica, Arial, sans-serif" font-size="14" font-weight="700" fill="#10212b">15.8</text>
<rect x="1176.9" y="212.0" width="74.8" height="81.5" rx="7" fill="#88aaae" stroke="#ffffff" stroke-width="1.5"/>
<text x="1214.3" y="259.8" text-anchor="middle" font-family="Helvetica, Arial, sans-serif" font-size="14" font-weight="700" fill="#10212b">14.5</text>
<rect x="1255.8" y="212.0" width="74.8" height="81.5" rx="7" fill="#88aaae" stroke="#ffffff" stroke-width="1.5"/>
<text x="1293.2" y="259.8" text-anchor="middle" font-family="Helvetica, Arial, sans-serif" font-size="14" font-weight="700" fill="#10212b">14.5</text>
<rect x="1334.6" y="212.0" width="74.8" height="81.5" rx="7" fill="#729cab" stroke="#ffffff" stroke-width="1.5"/>
<text x="1372.0" y="259.8" text-anchor="middle" font-family="Helvetica, Arial, sans-serif" font-size="14" font-weight="700" fill="#ffffff">17.1</text>
<rect x="1413.4" y="212.0" width="74.8" height="81.5" rx="7" fill="#7da3ac" stroke="#ffffff" stroke-width="1.5"/>
<text x="1450.8" y="259.8" text-anchor="middle" font-family="Helvetica, Arial, sans-serif" font-size="14" font-weight="700" fill="#10212b">15.8</text>
<rect x="1492.2" y="212.0" width="74.8" height="81.5" rx="7" fill="#7da3ac" stroke="#ffffff" stroke-width="1.5"/>
<text x="1529.6" y="259.8" text-anchor="middle" font-family="Helvetica, Arial, sans-serif" font-size="14" font-weight="700" fill="#10212b">15.8</text>
<text x="144" y="351.2" font-family="Helvetica, Arial, sans-serif" font-size="22" fill="#1f1f1f">Memory exec.</text>
<rect x="310.0" y="299.5" width="74.8" height="81.5" rx="7" fill="#749dab" stroke="#ffffff" stroke-width="1.5"/>
<text x="347.4" y="347.2" text-anchor="middle" font-family="Helvetica, Arial, sans-serif" font-size="14" font-weight="700" fill="#ffffff">16.9</text>
<rect x="388.8" y="299.5" width="74.8" height="81.5" rx="7" fill="#4982a6" stroke="#ffffff" stroke-width="1.5"/>
<text x="426.2" y="347.2" text-anchor="middle" font-family="Helvetica, Arial, sans-serif" font-size="14" font-weight="700" fill="#ffffff">22.1</text>
<rect x="467.6" y="299.5" width="74.8" height="81.5" rx="7" fill="#3172a3" stroke="#ffffff" stroke-width="1.5"/>
<text x="505.0" y="347.2" text-anchor="middle" font-family="Helvetica, Arial, sans-serif" font-size="14" font-weight="700" fill="#ffffff">25.0</text>
<rect x="546.4" y="299.5" width="74.8" height="81.5" rx="7" fill="#6191a9" stroke="#ffffff" stroke-width="1.5"/>
<text x="583.8" y="347.2" text-anchor="middle" font-family="Helvetica, Arial, sans-serif" font-size="14" font-weight="700" fill="#ffffff">19.2</text>
<rect x="625.2" y="299.5" width="74.8" height="81.5" rx="7" fill="#417da5" stroke="#ffffff" stroke-width="1.5"/>
<text x="662.7" y="347.2" text-anchor="middle" font-family="Helvetica, Arial, sans-serif" font-size="14" font-weight="700" fill="#ffffff">23.1</text>
<rect x="704.1" y="299.5" width="74.8" height="81.5" rx="7" fill="#3172a3" stroke="#ffffff" stroke-width="1.5"/>
<text x="741.5" y="347.2" text-anchor="middle" font-family="Helvetica, Arial, sans-serif" font-size="14" font-weight="700" fill="#ffffff">25.0</text>
<rect x="782.9" y="299.5" width="74.8" height="81.5" rx="7" fill="#5187a7" stroke="#ffffff" stroke-width="1.5"/>
<text x="820.3" y="347.2" text-anchor="middle" font-family="Helvetica, Arial, sans-serif" font-size="14" font-weight="700" fill="#ffffff">21.2</text>
<rect x="861.7" y="299.5" width="74.8" height="81.5" rx="7" fill="#3172a3" stroke="#ffffff" stroke-width="1.5"/>
<text x="899.1" y="347.2" text-anchor="middle" font-family="Helvetica, Arial, sans-serif" font-size="14" font-weight="700" fill="#ffffff">25.0</text>
<rect x="940.5" y="299.5" width="74.8" height="81.5" rx="7" fill="#4982a6" stroke="#ffffff" stroke-width="1.5"/>
<text x="977.9" y="347.2" text-anchor="middle" font-family="Helvetica, Arial, sans-serif" font-size="14" font-weight="700" fill="#ffffff">22.1</text>
<rect x="1019.3" y="299.5" width="74.8" height="81.5" rx="7" fill="#4982a6" stroke="#ffffff" stroke-width="1.5"/>
<text x="1056.7" y="347.2" text-anchor="middle" font-family="Helvetica, Arial, sans-serif" font-size="14" font-weight="700" fill="#ffffff">22.1</text>
<rect x="1098.1" y="299.5" width="74.8" height="81.5" rx="7" fill="#6996aa" stroke="#ffffff" stroke-width="1.5"/>
<text x="1135.5" y="347.2" text-anchor="middle" font-family="Helvetica, Arial, sans-serif" font-size="14" font-weight="700" fill="#ffffff">18.3</text>
<rect x="1176.9" y="299.5" width="74.8" height="81.5" rx="7" fill="#3978a4" stroke="#ffffff" stroke-width="1.5"/>
<text x="1214.3" y="347.2" text-anchor="middle" font-family="Helvetica, Arial, sans-serif" font-size="14" font-weight="700" fill="#ffffff">24.0</text>
<rect x="1255.8" y="299.5" width="74.8" height="81.5" rx="7" fill="#5187a7" stroke="#ffffff" stroke-width="1.5"/>
<text x="1293.2" y="347.2" text-anchor="middle" font-family="Helvetica, Arial, sans-serif" font-size="14" font-weight="700" fill="#ffffff">21.2</text>
<rect x="1334.6" y="299.5" width="74.8" height="81.5" rx="7" fill="#5187a7" stroke="#ffffff" stroke-width="1.5"/>
<text x="1372.0" y="347.2" text-anchor="middle" font-family="Helvetica, Arial, sans-serif" font-size="14" font-weight="700" fill="#ffffff">21.2</text>
<rect x="1413.4" y="299.5" width="74.8" height="81.5" rx="7" fill="#598ca8" stroke="#ffffff" stroke-width="1.5"/>
<text x="1450.8" y="347.2" text-anchor="middle" font-family="Helvetica, Arial, sans-serif" font-size="14" font-weight="700" fill="#ffffff">20.2</text>
<rect x="1492.2" y="299.5" width="74.8" height="81.5" rx="7" fill="#598ca8" stroke="#ffffff" stroke-width="1.5"/>
<text x="1529.6" y="347.2" text-anchor="middle" font-family="Helvetica, Arial, sans-serif" font-size="14" font-weight="700" fill="#ffffff">20.2</text>
<text x="144" y="438.8" font-family="Helvetica, Arial, sans-serif" font-size="22" fill="#1f1f1f">Memory expl.</text>
<rect x="310.0" y="387.0" width="74.8" height="81.5" rx="7" fill="#84a8ad" stroke="#ffffff" stroke-width="1.5"/>
<text x="347.4" y="434.8" text-anchor="middle" font-family="Helvetica, Arial, sans-serif" font-size="14" font-weight="700" fill="#10212b">15.0</text>
<rect x="388.8" y="387.0" width="74.8" height="81.5" rx="7" fill="#6795aa" stroke="#ffffff" stroke-width="1.5"/>
<text x="426.2" y="434.8" text-anchor="middle" font-family="Helvetica, Arial, sans-serif" font-size="14" font-weight="700" fill="#ffffff">18.5</text>
<rect x="467.6" y="387.0" width="74.8" height="81.5" rx="7" fill="#759eab" stroke="#ffffff" stroke-width="1.5"/>
<text x="505.0" y="434.8" text-anchor="middle" font-family="Helvetica, Arial, sans-serif" font-size="14" font-weight="700" fill="#ffffff">16.8</text>
<rect x="546.4" y="387.0" width="74.8" height="81.5" rx="7" fill="#759eab" stroke="#ffffff" stroke-width="1.5"/>
<text x="583.8" y="434.8" text-anchor="middle" font-family="Helvetica, Arial, sans-serif" font-size="14" font-weight="700" fill="#ffffff">16.8</text>
<rect x="625.2" y="387.0" width="74.8" height="81.5" rx="7" fill="#7ca2ac" stroke="#ffffff" stroke-width="1.5"/>
<text x="662.7" y="434.8" text-anchor="middle" font-family="Helvetica, Arial, sans-serif" font-size="14" font-weight="700" fill="#10212b">16.0</text>
<rect x="704.1" y="387.0" width="74.8" height="81.5" rx="7" fill="#5288a7" stroke="#ffffff" stroke-width="1.5"/>
<text x="741.5" y="434.8" text-anchor="middle" font-family="Helvetica, Arial, sans-serif" font-size="14" font-weight="700" fill="#ffffff">21.0</text>
<rect x="782.9" y="387.0" width="74.8" height="81.5" rx="7" fill="#598ca8" stroke="#ffffff" stroke-width="1.5"/>
<text x="820.3" y="434.8" text-anchor="middle" font-family="Helvetica, Arial, sans-serif" font-size="14" font-weight="700" fill="#ffffff">20.2</text>
<rect x="861.7" y="387.0" width="74.8" height="81.5" rx="7" fill="#759eab" stroke="#ffffff" stroke-width="1.5"/>
<text x="899.1" y="434.8" text-anchor="middle" font-family="Helvetica, Arial, sans-serif" font-size="14" font-weight="700" fill="#ffffff">16.8</text>
<rect x="940.5" y="387.0" width="74.8" height="81.5" rx="7" fill="#6795aa" stroke="#ffffff" stroke-width="1.5"/>
<text x="977.9" y="434.8" text-anchor="middle" font-family="Helvetica, Arial, sans-serif" font-size="14" font-weight="700" fill="#ffffff">18.5</text>
<rect x="1019.3" y="387.0" width="74.8" height="81.5" rx="7" fill="#6e99aa" stroke="#ffffff" stroke-width="1.5"/>
<text x="1056.7" y="434.8" text-anchor="middle" font-family="Helvetica, Arial, sans-serif" font-size="14" font-weight="700" fill="#ffffff">17.6</text>
<rect x="1098.1" y="387.0" width="74.8" height="81.5" rx="7" fill="#7ca2ac" stroke="#ffffff" stroke-width="1.5"/>
<text x="1135.5" y="434.8" text-anchor="middle" font-family="Helvetica, Arial, sans-serif" font-size="14" font-weight="700" fill="#10212b">16.0</text>
<rect x="1176.9" y="387.0" width="74.8" height="81.5" rx="7" fill="#6091a9" stroke="#ffffff" stroke-width="1.5"/>
<text x="1214.3" y="434.8" text-anchor="middle" font-family="Helvetica, Arial, sans-serif" font-size="14" font-weight="700" fill="#ffffff">19.3</text>
<rect x="1255.8" y="387.0" width="74.8" height="81.5" rx="7" fill="#759eab" stroke="#ffffff" stroke-width="1.5"/>
<text x="1293.2" y="434.8" text-anchor="middle" font-family="Helvetica, Arial, sans-serif" font-size="14" font-weight="700" fill="#ffffff">16.8</text>
<rect x="1334.6" y="387.0" width="74.8" height="81.5" rx="7" fill="#6091a9" stroke="#ffffff" stroke-width="1.5"/>
<text x="1372.0" y="434.8" text-anchor="middle" font-family="Helvetica, Arial, sans-serif" font-size="14" font-weight="700" fill="#ffffff">19.3</text>
<rect x="1413.4" y="387.0" width="74.8" height="81.5" rx="7" fill="#759eab" stroke="#ffffff" stroke-width="1.5"/>
<text x="1450.8" y="434.8" text-anchor="middle" font-family="Helvetica, Arial, sans-serif" font-size="14" font-weight="700" fill="#ffffff">16.8</text>
<rect x="1492.2" y="387.0" width="74.8" height="81.5" rx="7" fill="#6e99aa" stroke="#ffffff" stroke-width="1.5"/>
<text x="1529.6" y="434.8" text-anchor="middle" font-family="Helvetica, Arial, sans-serif" font-size="14" font-weight="700" fill="#ffffff">17.6</text>
<text x="144" y="526.2" font-family="Helvetica, Arial, sans-serif" font-size="22" fill="#1f1f1f">Mix</text>
<rect x="310.0" y="474.5" width="74.8" height="81.5" rx="7" fill="#85a9ad" stroke="#ffffff" stroke-width="1.5"/>
<text x="347.4" y="522.2" text-anchor="middle" font-family="Helvetica, Arial, sans-serif" font-size="14" font-weight="700" fill="#10212b">14.8</text>
<rect x="388.8" y="474.5" width="74.8" height="81.5" rx="7" fill="#6594a9" stroke="#ffffff" stroke-width="1.5"/>
<text x="426.2" y="522.2" text-anchor="middle" font-family="Helvetica, Arial, sans-serif" font-size="14" font-weight="700" fill="#ffffff">18.8</text>
<rect x="467.6" y="474.5" width="74.8" height="81.5" rx="7" fill="#6594a9" stroke="#ffffff" stroke-width="1.5"/>
<text x="505.0" y="522.2" text-anchor="middle" font-family="Helvetica, Arial, sans-serif" font-size="14" font-weight="700" fill="#ffffff">18.8</text>
<rect x="546.4" y="474.5" width="74.8" height="81.5" rx="7" fill="#769fab" stroke="#ffffff" stroke-width="1.5"/>
<text x="583.8" y="522.2" text-anchor="middle" font-family="Helvetica, Arial, sans-serif" font-size="14" font-weight="700" fill="#ffffff">16.7</text>
<rect x="625.2" y="474.5" width="74.8" height="81.5" rx="7" fill="#7ea4ac" stroke="#ffffff" stroke-width="1.5"/>
<text x="662.7" y="522.2" text-anchor="middle" font-family="Helvetica, Arial, sans-serif" font-size="14" font-weight="700" fill="#10212b">15.6</text>
<rect x="704.1" y="474.5" width="74.8" height="81.5" rx="7" fill="#5c8ea8" stroke="#ffffff" stroke-width="1.5"/>
<text x="741.5" y="522.2" text-anchor="middle" font-family="Helvetica, Arial, sans-serif" font-size="14" font-weight="700" fill="#ffffff">19.8</text>
<rect x="782.9" y="474.5" width="74.8" height="81.5" rx="7" fill="#7ea4ac" stroke="#ffffff" stroke-width="1.5"/>
<text x="820.3" y="522.2" text-anchor="middle" font-family="Helvetica, Arial, sans-serif" font-size="14" font-weight="700" fill="#10212b">15.6</text>
<rect x="861.7" y="474.5" width="74.8" height="81.5" rx="7" fill="#6d99aa" stroke="#ffffff" stroke-width="1.5"/>
<text x="899.1" y="522.2" text-anchor="middle" font-family="Helvetica, Arial, sans-serif" font-size="14" font-weight="700" fill="#ffffff">17.7</text>
<rect x="940.5" y="474.5" width="74.8" height="81.5" rx="7" fill="#6d99aa" stroke="#ffffff" stroke-width="1.5"/>
<text x="977.9" y="522.2" text-anchor="middle" font-family="Helvetica, Arial, sans-serif" font-size="14" font-weight="700" fill="#ffffff">17.7</text>
<rect x="1019.3" y="474.5" width="74.8" height="81.5" rx="7" fill="#769fab" stroke="#ffffff" stroke-width="1.5"/>
<text x="1056.7" y="522.2" text-anchor="middle" font-family="Helvetica, Arial, sans-serif" font-size="14" font-weight="700" fill="#ffffff">16.7</text>
<rect x="1098.1" y="474.5" width="74.8" height="81.5" rx="7" fill="#6d99aa" stroke="#ffffff" stroke-width="1.5"/>
<text x="1135.5" y="522.2" text-anchor="middle" font-family="Helvetica, Arial, sans-serif" font-size="14" font-weight="700" fill="#ffffff">17.7</text>
<rect x="1176.9" y="474.5" width="74.8" height="81.5" rx="7" fill="#5c8ea8" stroke="#ffffff" stroke-width="1.5"/>
<text x="1214.3" y="522.2" text-anchor="middle" font-family="Helvetica, Arial, sans-serif" font-size="14" font-weight="700" fill="#ffffff">19.8</text>
<rect x="1255.8" y="474.5" width="74.8" height="81.5" rx="7" fill="#5c8ea8" stroke="#ffffff" stroke-width="1.5"/>
<text x="1293.2" y="522.2" text-anchor="middle" font-family="Helvetica, Arial, sans-serif" font-size="14" font-weight="700" fill="#ffffff">19.8</text>
<rect x="1334.6" y="474.5" width="74.8" height="81.5" rx="7" fill="#769fab" stroke="#ffffff" stroke-width="1.5"/>
<text x="1372.0" y="522.2" text-anchor="middle" font-family="Helvetica, Arial, sans-serif" font-size="14" font-weight="700" fill="#ffffff">16.7</text>
<rect x="1413.4" y="474.5" width="74.8" height="81.5" rx="7" fill="#87aaad" stroke="#ffffff" stroke-width="1.5"/>
<text x="1450.8" y="522.2" text-anchor="middle" font-family="Helvetica, Arial, sans-serif" font-size="14" font-weight="700" fill="#10212b">14.6</text>
<rect x="1492.2" y="474.5" width="74.8" height="81.5" rx="7" fill="#5c8ea8" stroke="#ffffff" stroke-width="1.5"/>
<text x="1529.6" y="522.2" text-anchor="middle" font-family="Helvetica, Arial, sans-serif" font-size="14" font-weight="700" fill="#ffffff">19.8</text>
<text x="144" y="613.8" font-family="Helvetica, Arial, sans-serif" font-size="22" fill="#1f1f1f">Obs. mismatch</text>
<rect x="310.0" y="562.0" width="74.8" height="81.5" rx="7" fill="#9bb7b0" stroke="#ffffff" stroke-width="1.5"/>
<text x="347.4" y="609.8" text-anchor="middle" font-family="Helvetica, Arial, sans-serif" font-size="14" font-weight="700" fill="#10212b">12.1</text>
<rect x="388.8" y="562.0" width="74.8" height="81.5" rx="7" fill="#82a7ad" stroke="#ffffff" stroke-width="1.5"/>
<text x="426.2" y="609.8" text-anchor="middle" font-family="Helvetica, Arial, sans-serif" font-size="14" font-weight="700" fill="#10212b">15.2</text>
<rect x="467.6" y="562.0" width="74.8" height="81.5" rx="7" fill="#82a7ad" stroke="#ffffff" stroke-width="1.5"/>
<text x="505.0" y="609.8" text-anchor="middle" font-family="Helvetica, Arial, sans-serif" font-size="14" font-weight="700" fill="#10212b">15.2</text>
<rect x="546.4" y="562.0" width="74.8" height="81.5" rx="7" fill="#82a7ad" stroke="#ffffff" stroke-width="1.5"/>
<text x="583.8" y="609.8" text-anchor="middle" font-family="Helvetica, Arial, sans-serif" font-size="14" font-weight="700" fill="#10212b">15.2</text>
<rect x="625.2" y="562.0" width="74.8" height="81.5" rx="7" fill="#8fafae" stroke="#ffffff" stroke-width="1.5"/>
<text x="662.7" y="609.8" text-anchor="middle" font-family="Helvetica, Arial, sans-serif" font-size="14" font-weight="700" fill="#10212b">13.6</text>
<rect x="704.1" y="562.0" width="74.8" height="81.5" rx="7" fill="#8fafae" stroke="#ffffff" stroke-width="1.5"/>
<text x="741.5" y="609.8" text-anchor="middle" font-family="Helvetica, Arial, sans-serif" font-size="14" font-weight="700" fill="#10212b">13.6</text>
<rect x="782.9" y="562.0" width="74.8" height="81.5" rx="7" fill="#8fafae" stroke="#ffffff" stroke-width="1.5"/>
<text x="820.3" y="609.8" text-anchor="middle" font-family="Helvetica, Arial, sans-serif" font-size="14" font-weight="700" fill="#10212b">13.6</text>
<rect x="861.7" y="562.0" width="74.8" height="81.5" rx="7" fill="#8fafae" stroke="#ffffff" stroke-width="1.5"/>
<text x="899.1" y="609.8" text-anchor="middle" font-family="Helvetica, Arial, sans-serif" font-size="14" font-weight="700" fill="#10212b">13.6</text>
<rect x="940.5" y="562.0" width="74.8" height="81.5" rx="7" fill="#82a7ad" stroke="#ffffff" stroke-width="1.5"/>
<text x="977.9" y="609.8" text-anchor="middle" font-family="Helvetica, Arial, sans-serif" font-size="14" font-weight="700" fill="#10212b">15.2</text>
<rect x="1019.3" y="562.0" width="74.8" height="81.5" rx="7" fill="#82a7ad" stroke="#ffffff" stroke-width="1.5"/>
<text x="1056.7" y="609.8" text-anchor="middle" font-family="Helvetica, Arial, sans-serif" font-size="14" font-weight="700" fill="#10212b">15.2</text>
<rect x="1098.1" y="562.0" width="74.8" height="81.5" rx="7" fill="#769fab" stroke="#ffffff" stroke-width="1.5"/>
<text x="1135.5" y="609.8" text-anchor="middle" font-family="Helvetica, Arial, sans-serif" font-size="14" font-weight="700" fill="#ffffff">16.7</text>
<rect x="1176.9" y="562.0" width="74.8" height="81.5" rx="7" fill="#769fab" stroke="#ffffff" stroke-width="1.5"/>
<text x="1214.3" y="609.8" text-anchor="middle" font-family="Helvetica, Arial, sans-serif" font-size="14" font-weight="700" fill="#ffffff">16.7</text>
<rect x="1255.8" y="562.0" width="74.8" height="81.5" rx="7" fill="#8fafae" stroke="#ffffff" stroke-width="1.5"/>
<text x="1293.2" y="609.8" text-anchor="middle" font-family="Helvetica, Arial, sans-serif" font-size="14" font-weight="700" fill="#10212b">13.6</text>
<rect x="1334.6" y="562.0" width="74.8" height="81.5" rx="7" fill="#82a7ad" stroke="#ffffff" stroke-width="1.5"/>
<text x="1372.0" y="609.8" text-anchor="middle" font-family="Helvetica, Arial, sans-serif" font-size="14" font-weight="700" fill="#10212b">15.2</text>
<rect x="1413.4" y="562.0" width="74.8" height="81.5" rx="7" fill="#82a7ad" stroke="#ffffff" stroke-width="1.5"/>
<text x="1450.8" y="609.8" text-anchor="middle" font-family="Helvetica, Arial, sans-serif" font-size="14" font-weight="700" fill="#10212b">15.2</text>
<rect x="1492.2" y="562.0" width="74.8" height="81.5" rx="7" fill="#82a7ad" stroke="#ffffff" stroke-width="1.5"/>
<text x="1529.6" y="609.8" text-anchor="middle" font-family="Helvetica, Arial, sans-serif" font-size="14" font-weight="700" fill="#10212b">15.2</text>
<text x="144" y="701.2" font-family="Helvetica, Arial, sans-serif" font-size="22" fill="#1f1f1f">Random disturb.</text>
<rect x="310.0" y="649.5" width="74.8" height="81.5" rx="7" fill="#8cadae" stroke="#ffffff" stroke-width="1.5"/>
<text x="347.4" y="697.2" text-anchor="middle" font-family="Helvetica, Arial, sans-serif" font-size="14" font-weight="700" fill="#10212b">13.9</text>
<rect x="388.8" y="649.5" width="74.8" height="81.5" rx="7" fill="#5d8ea8" stroke="#ffffff" stroke-width="1.5"/>
<text x="426.2" y="697.2" text-anchor="middle" font-family="Helvetica, Arial, sans-serif" font-size="14" font-weight="700" fill="#ffffff">19.7</text>
<rect x="467.6" y="649.5" width="74.8" height="81.5" rx="7" fill="#88aaae" stroke="#ffffff" stroke-width="1.5"/>
<text x="505.0" y="697.2" text-anchor="middle" font-family="Helvetica, Arial, sans-serif" font-size="14" font-weight="700" fill="#10212b">14.5</text>
<rect x="546.4" y="649.5" width="74.8" height="81.5" rx="7" fill="#7da3ac" stroke="#ffffff" stroke-width="1.5"/>
<text x="583.8" y="697.2" text-anchor="middle" font-family="Helvetica, Arial, sans-serif" font-size="14" font-weight="700" fill="#10212b">15.8</text>
<rect x="625.2" y="649.5" width="74.8" height="81.5" rx="7" fill="#7da3ac" stroke="#ffffff" stroke-width="1.5"/>
<text x="662.7" y="697.2" text-anchor="middle" font-family="Helvetica, Arial, sans-serif" font-size="14" font-weight="700" fill="#10212b">15.8</text>
<rect x="704.1" y="649.5" width="74.8" height="81.5" rx="7" fill="#729cab" stroke="#ffffff" stroke-width="1.5"/>
<text x="741.5" y="697.2" text-anchor="middle" font-family="Helvetica, Arial, sans-serif" font-size="14" font-weight="700" fill="#ffffff">17.1</text>
<rect x="782.9" y="649.5" width="74.8" height="81.5" rx="7" fill="#729cab" stroke="#ffffff" stroke-width="1.5"/>
<text x="820.3" y="697.2" text-anchor="middle" font-family="Helvetica, Arial, sans-serif" font-size="14" font-weight="700" fill="#ffffff">17.1</text>
<rect x="861.7" y="649.5" width="74.8" height="81.5" rx="7" fill="#88aaae" stroke="#ffffff" stroke-width="1.5"/>
<text x="899.1" y="697.2" text-anchor="middle" font-family="Helvetica, Arial, sans-serif" font-size="14" font-weight="700" fill="#10212b">14.5</text>
<rect x="940.5" y="649.5" width="74.8" height="81.5" rx="7" fill="#93b1af" stroke="#ffffff" stroke-width="1.5"/>
<text x="977.9" y="697.2" text-anchor="middle" font-family="Helvetica, Arial, sans-serif" font-size="14" font-weight="700" fill="#10212b">13.2</text>
<rect x="1019.3" y="649.5" width="74.8" height="81.5" rx="7" fill="#7da3ac" stroke="#ffffff" stroke-width="1.5"/>
<text x="1056.7" y="697.2" text-anchor="middle" font-family="Helvetica, Arial, sans-serif" font-size="14" font-weight="700" fill="#10212b">15.8</text>
<rect x="1098.1" y="649.5" width="74.8" height="81.5" rx="7" fill="#6795aa" stroke="#ffffff" stroke-width="1.5"/>
<text x="1135.5" y="697.2" text-anchor="middle" font-family="Helvetica, Arial, sans-serif" font-size="14" font-weight="700" fill="#ffffff">18.4</text>
<rect x="1176.9" y="649.5" width="74.8" height="81.5" rx="7" fill="#93b1af" stroke="#ffffff" stroke-width="1.5"/>
<text x="1214.3" y="697.2" text-anchor="middle" font-family="Helvetica, Arial, sans-serif" font-size="14" font-weight="700" fill="#10212b">13.2</text>
<rect x="1255.8" y="649.5" width="74.8" height="81.5" rx="7" fill="#7da3ac" stroke="#ffffff" stroke-width="1.5"/>
<text x="1293.2" y="697.2" text-anchor="middle" font-family="Helvetica, Arial, sans-serif" font-size="14" font-weight="700" fill="#10212b">15.8</text>
<rect x="1334.6" y="649.5" width="74.8" height="81.5" rx="7" fill="#729cab" stroke="#ffffff" stroke-width="1.5"/>
<text x="1372.0" y="697.2" text-anchor="middle" font-family="Helvetica, Arial, sans-serif" font-size="14" font-weight="700" fill="#ffffff">17.1</text>
<rect x="1413.4" y="649.5" width="74.8" height="81.5" rx="7" fill="#7da3ac" stroke="#ffffff" stroke-width="1.5"/>
<text x="1450.8" y="697.2" text-anchor="middle" font-family="Helvetica, Arial, sans-serif" font-size="14" font-weight="700" fill="#10212b">15.8</text>
<rect x="1492.2" y="649.5" width="74.8" height="81.5" rx="7" fill="#729cab" stroke="#ffffff" stroke-width="1.5"/>
<text x="1529.6" y="697.2" text-anchor="middle" font-family="Helvetica, Arial, sans-serif" font-size="14" font-weight="700" fill="#ffffff">17.1</text>
<rect x="1595.0" y="737.0" width="20" height="4.75" fill="#fff7bc" stroke="none"/>
<rect x="1595.0" y="733.2" width="20" height="4.75" fill="#fdf6bc" stroke="none"/>
<rect x="1595.0" y="729.5" width="20" height="4.75" fill="#fbf5bc" stroke="none"/>
<rect x="1595.0" y="725.8" width="20" height="4.75" fill="#faf4bb" stroke="none"/>
<rect x="1595.0" y="722.0" width="20" height="4.75" fill="#f8f2bb" stroke="none"/>
<rect x="1595.0" y="718.2" width="20" height="4.75" fill="#f6f1bb" stroke="none"/>
<rect x="1595.0" y="714.5" width="20" height="4.75" fill="#f4f0bb" stroke="none"/>
<rect x="1595.0" y="710.8" width="20" height="4.75" fill="#f3efba" stroke="none"/>
<rect x="1595.0" y="707.0" width="20" height="4.75" fill="#f1eeba" stroke="none"/>
<rect x="1595.0" y="703.2" width="20" height="4.75" fill="#efedba" stroke="none"/>
<rect x="1595.0" y="699.5" width="20" height="4.75" fill="#edecba" stroke="none"/>
<rect x="1595.0" y="695.8" width="20" height="4.75" fill="#ecebba" stroke="none"/>
<rect x="1595.0" y="692.0" width="20" height="4.75" fill="#eae9b9" stroke="none"/>
<rect x="1595.0" y="688.2" width="20" height="4.75" fill="#e8e8b9" stroke="none"/>
<rect x="1595.0" y="684.5" width="20" height="4.75" fill="#e6e7b9" stroke="none"/>
<rect x="1595.0" y="680.8" width="20" height="4.75" fill="#e5e6b9" stroke="none"/>
<rect x="1595.0" y="677.0" width="20" height="4.75" fill="#e3e5b9" stroke="none"/>
<rect x="1595.0" y="673.2" width="20" height="4.75" fill="#e1e4b8" stroke="none"/>
<rect x="1595.0" y="669.5" width="20" height="4.75" fill="#dfe3b8" stroke="none"/>
<rect x="1595.0" y="665.8" width="20" height="4.75" fill="#dde1b8" stroke="none"/>
<rect x="1595.0" y="662.0" width="20" height="4.75" fill="#dce0b8" stroke="none"/>
<rect x="1595.0" y="658.2" width="20" height="4.75" fill="#dadfb8" stroke="none"/>
<rect x="1595.0" y="654.5" width="20" height="4.75" fill="#d8deb7" stroke="none"/>
<rect x="1595.0" y="650.8" width="20" height="4.75" fill="#d6ddb7" stroke="none"/>
<rect x="1595.0" y="647.0" width="20" height="4.75" fill="#d5dcb7" stroke="none"/>
<rect x="1595.0" y="643.2" width="20" height="4.75" fill="#d3dbb7" stroke="none"/>
<rect x="1595.0" y="639.5" width="20" height="4.75" fill="#d1d9b6" stroke="none"/>
<rect x="1595.0" y="635.8" width="20" height="4.75" fill="#cfd8b6" stroke="none"/>
<rect x="1595.0" y="632.0" width="20" height="4.75" fill="#ced7b6" stroke="none"/>
<rect x="1595.0" y="628.2" width="20" height="4.75" fill="#ccd6b6" stroke="none"/>
<rect x="1595.0" y="624.5" width="20" height="4.75" fill="#cad5b6" stroke="none"/>
<rect x="1595.0" y="620.8" width="20" height="4.75" fill="#c8d4b5" stroke="none"/>
<rect x="1595.0" y="617.0" width="20" height="4.75" fill="#c7d3b5" stroke="none"/>
<rect x="1595.0" y="613.2" width="20" height="4.75" fill="#c5d2b5" stroke="none"/>
<rect x="1595.0" y="609.5" width="20" height="4.75" fill="#c3d0b5" stroke="none"/>
<rect x="1595.0" y="605.8" width="20" height="4.75" fill="#c1cfb4" stroke="none"/>
<rect x="1595.0" y="602.0" width="20" height="4.75" fill="#bfceb4" stroke="none"/>
<rect x="1595.0" y="598.2" width="20" height="4.75" fill="#becdb4" stroke="none"/>
<rect x="1595.0" y="594.5" width="20" height="4.75" fill="#bcccb4" stroke="none"/>
<rect x="1595.0" y="590.8" width="20" height="4.75" fill="#bacbb4" stroke="none"/>
<rect x="1595.0" y="587.0" width="20" height="4.75" fill="#b8cab3" stroke="none"/>
<rect x="1595.0" y="583.2" width="20" height="4.75" fill="#b7c8b3" stroke="none"/>
<rect x="1595.0" y="579.5" width="20" height="4.75" fill="#b5c7b3" stroke="none"/>
<rect x="1595.0" y="575.8" width="20" height="4.75" fill="#b3c6b3" stroke="none"/>
<rect x="1595.0" y="572.0" width="20" height="4.75" fill="#b1c5b3" stroke="none"/>
<rect x="1595.0" y="568.2" width="20" height="4.75" fill="#b0c4b2" stroke="none"/>
<rect x="1595.0" y="564.5" width="20" height="4.75" fill="#aec3b2" stroke="none"/>
<rect x="1595.0" y="560.8" width="20" height="4.75" fill="#acc2b2" stroke="none"/>
<rect x="1595.0" y="557.0" width="20" height="4.75" fill="#aac0b2" stroke="none"/>
<rect x="1595.0" y="553.2" width="20" height="4.75" fill="#a9bfb2" stroke="none"/>
<rect x="1595.0" y="549.5" width="20" height="4.75" fill="#a7beb1" stroke="none"/>
<rect x="1595.0" y="545.8" width="20" height="4.75" fill="#a5bdb1" stroke="none"/>
<rect x="1595.0" y="542.0" width="20" height="4.75" fill="#a3bcb1" stroke="none"/>
<rect x="1595.0" y="538.2" width="20" height="4.75" fill="#a1bbb1" stroke="none"/>
<rect x="1595.0" y="534.5" width="20" height="4.75" fill="#a0bab0" stroke="none"/>
<rect x="1595.0" y="530.8" width="20" height="4.75" fill="#9eb9b0" stroke="none"/>
<rect x="1595.0" y="527.0" width="20" height="4.75" fill="#9cb7b0" stroke="none"/>
<rect x="1595.0" y="523.2" width="20" height="4.75" fill="#9ab6b0" stroke="none"/>
<rect x="1595.0" y="519.5" width="20" height="4.75" fill="#99b5b0" stroke="none"/>
<rect x="1595.0" y="515.8" width="20" height="4.75" fill="#97b4af" stroke="none"/>
<rect x="1595.0" y="512.0" width="20" height="4.75" fill="#95b3af" stroke="none"/>
<rect x="1595.0" y="508.2" width="20" height="4.75" fill="#93b2af" stroke="none"/>
<rect x="1595.0" y="504.5" width="20" height="4.75" fill="#92b1af" stroke="none"/>
<rect x="1595.0" y="500.8" width="20" height="4.75" fill="#90afae" stroke="none"/>
<rect x="1595.0" y="497.0" width="20" height="4.75" fill="#8eaeae" stroke="none"/>
<rect x="1595.0" y="493.2" width="20" height="4.75" fill="#8cadae" stroke="none"/>
<rect x="1595.0" y="489.5" width="20" height="4.75" fill="#8bacae" stroke="none"/>
<rect x="1595.0" y="485.7" width="20" height="4.75" fill="#89abae" stroke="none"/>
<rect x="1595.0" y="482.0" width="20" height="4.75" fill="#87aaad" stroke="none"/>
<rect x="1595.0" y="478.2" width="20" height="4.75" fill="#85a9ad" stroke="none"/>
<rect x="1595.0" y="474.5" width="20" height="4.75" fill="#84a8ad" stroke="none"/>
<rect x="1595.0" y="470.8" width="20" height="4.75" fill="#82a6ad" stroke="none"/>
<rect x="1595.0" y="467.0" width="20" height="4.75" fill="#80a5ad" stroke="none"/>
<rect x="1595.0" y="463.2" width="20" height="4.75" fill="#7ea4ac" stroke="none"/>
<rect x="1595.0" y="459.5" width="20" height="4.75" fill="#7ca3ac" stroke="none"/>
<rect x="1595.0" y="455.8" width="20" height="4.75" fill="#7ba2ac" stroke="none"/>
<rect x="1595.0" y="452.0" width="20" height="4.75" fill="#79a1ac" stroke="none"/>
<rect x="1595.0" y="448.2" width="20" height="4.75" fill="#77a0ac" stroke="none"/>
<rect x="1595.0" y="444.5" width="20" height="4.75" fill="#759eab" stroke="none"/>
<rect x="1595.0" y="440.8" width="20" height="4.75" fill="#749dab" stroke="none"/>
<rect x="1595.0" y="437.0" width="20" height="4.75" fill="#729cab" stroke="none"/>
<rect x="1595.0" y="433.2" width="20" height="4.75" fill="#709bab" stroke="none"/>
<rect x="1595.0" y="429.5" width="20" height="4.75" fill="#6e9aaa" stroke="none"/>
<rect x="1595.0" y="425.8" width="20" height="4.75" fill="#6d99aa" stroke="none"/>
<rect x="1595.0" y="422.0" width="20" height="4.75" fill="#6b98aa" stroke="none"/>
<rect x="1595.0" y="418.2" width="20" height="4.75" fill="#6996aa" stroke="none"/>
<rect x="1595.0" y="414.5" width="20" height="4.75" fill="#6795aa" stroke="none"/>
<rect x="1595.0" y="410.8" width="20" height="4.75" fill="#6694a9" stroke="none"/>
<rect x="1595.0" y="407.0" width="20" height="4.75" fill="#6493a9" stroke="none"/>
<rect x="1595.0" y="403.2" width="20" height="4.75" fill="#6292a9" stroke="none"/>
<rect x="1595.0" y="399.5" width="20" height="4.75" fill="#6091a9" stroke="none"/>
<rect x="1595.0" y="395.8" width="20" height="4.75" fill="#5e90a8" stroke="none"/>
<rect x="1595.0" y="392.0" width="20" height="4.75" fill="#5d8fa8" stroke="none"/>
<rect x="1595.0" y="388.2" width="20" height="4.75" fill="#5b8da8" stroke="none"/>
<rect x="1595.0" y="384.5" width="20" height="4.75" fill="#598ca8" stroke="none"/>
<rect x="1595.0" y="380.8" width="20" height="4.75" fill="#578ba8" stroke="none"/>
<rect x="1595.0" y="377.0" width="20" height="4.75" fill="#568aa7" stroke="none"/>
<rect x="1595.0" y="373.2" width="20" height="4.75" fill="#5489a7" stroke="none"/>
<rect x="1595.0" y="369.5" width="20" height="4.75" fill="#5288a7" stroke="none"/>
<rect x="1595.0" y="365.8" width="20" height="4.75" fill="#5087a7" stroke="none"/>
<rect x="1595.0" y="362.0" width="20" height="4.75" fill="#4f85a7" stroke="none"/>
<rect x="1595.0" y="358.2" width="20" height="4.75" fill="#4d84a6" stroke="none"/>
<rect x="1595.0" y="354.5" width="20" height="4.75" fill="#4b83a6" stroke="none"/>
<rect x="1595.0" y="350.8" width="20" height="4.75" fill="#4982a6" stroke="none"/>
<rect x="1595.0" y="347.0" width="20" height="4.75" fill="#4881a6" stroke="none"/>
<rect x="1595.0" y="343.2" width="20" height="4.75" fill="#4680a6" stroke="none"/>
<rect x="1595.0" y="339.5" width="20" height="4.75" fill="#447fa5" stroke="none"/>
<rect x="1595.0" y="335.8" width="20" height="4.75" fill="#427da5" stroke="none"/>
<rect x="1595.0" y="332.0" width="20" height="4.75" fill="#407ca5" stroke="none"/>
<rect x="1595.0" y="328.2" width="20" height="4.75" fill="#3f7ba5" stroke="none"/>
<rect x="1595.0" y="324.5" width="20" height="4.75" fill="#3d7aa4" stroke="none"/>
<rect x="1595.0" y="320.8" width="20" height="4.75" fill="#3b79a4" stroke="none"/>
<rect x="1595.0" y="317.0" width="20" height="4.75" fill="#3978a4" stroke="none"/>
<rect x="1595.0" y="313.2" width="20" height="4.75" fill="#3877a4" stroke="none"/>
<rect x="1595.0" y="309.5" width="20" height="4.75" fill="#3676a4" stroke="none"/>
<rect x="1595.0" y="305.8" width="20" height="4.75" fill="#3474a3" stroke="none"/>
<rect x="1595.0" y="302.0" width="20" height="4.75" fill="#3273a3" stroke="none"/>
<rect x="1595.0" y="298.2" width="20" height="4.75" fill="#3172a3" stroke="none"/>
<rect x="1595.0" y="294.5" width="20" height="4.75" fill="#2f71a3" stroke="none"/>
<rect x="1595.0" y="290.8" width="20" height="4.75" fill="#2d70a2" stroke="none"/>
<rect x="1595.0" y="287.0" width="20" height="4.75" fill="#2b6fa2" stroke="none"/>
<rect x="1595.0" y="283.2" width="20" height="4.75" fill="#2a6ea2" stroke="none"/>
<rect x="1595.0" y="279.5" width="20" height="4.75" fill="#286ca2" stroke="none"/>
<rect x="1595.0" y="275.8" width="20" height="4.75" fill="#266ba2" stroke="none"/>
<rect x="1595.0" y="272.0" width="20" height="4.75" fill="#246aa1" stroke="none"/>
<rect x="1595.0" y="268.2" width="20" height="4.75" fill="#2269a1" stroke="none"/>
<rect x="1595.0" y="264.5" width="20" height="4.75" fill="#2168a1" stroke="none"/>
<rect x="1595.0" y="260.8" width="20" height="4.75" fill="#1f67a1" stroke="none"/>
<rect x="1595.0" y="257.0" width="20" height="4.75" fill="#1d66a1" stroke="none"/>
<rect x="1595.0" y="253.3" width="20" height="4.75" fill="#1b64a0" stroke="none"/>
<rect x="1595.0" y="249.5" width="20" height="4.75" fill="#1a63a0" stroke="none"/>
<rect x="1595.0" y="245.8" width="20" height="4.75" fill="#1862a0" stroke="none"/>
<rect x="1595.0" y="242.0" width="20" height="4.75" fill="#1661a0" stroke="none"/>
<rect x="1595.0" y="238.3" width="20" height="4.75" fill="#1460a0" stroke="none"/>
<rect x="1595.0" y="234.5" width="20" height="4.75" fill="#135f9f" stroke="none"/>
<rect x="1595.0" y="230.8" width="20" height="4.75" fill="#115e9f" stroke="none"/>
<rect x="1595.0" y="227.0" width="20" height="4.75" fill="#0f5d9f" stroke="none"/>
<rect x="1595.0" y="223.3" width="20" height="4.75" fill="#0d5b9f" stroke="none"/>
<rect x="1595.0" y="219.5" width="20" height="4.75" fill="#0c5a9e" stroke="none"/>
<rect x="1595.0" y="215.8" width="20" height="4.75" fill="#0a599e" stroke="none"/>
<text x="1625.0" y="220.0" font-family="Helvetica, Arial, sans-serif" font-size="16" fill="#555">30</text>
<text x="1625.0" y="737.0" font-family="Helvetica, Arial, sans-serif" font-size="16" fill="#555">0</text>
<text x="1651.0" y="474.5" transform="rotate(90 1651.0,474.5)" font-family="Helvetica, Arial, sans-serif" font-size="16" fill="#555">Completion (%)</text>
<text x="120" y="904" font-family="Helvetica, Arial, sans-serif" font-size="14" fill="#666">Checkpoint runs use fewer trials than the step-0 baseline; read this as a trend and sanity check rather than a high-confidence ranking.</text>
</svg>