<svg xmlns="http://www.w3.org/2000/svg" width="1600" height="940" viewBox="0 0 1600 940">
<rect width="100%" height="100%" fill="#fbfaf5"/>
<text x="800" y="64" text-anchor="middle" font-family="Helvetica, Arial, sans-serif" font-size="34" font-weight="700" fill="#151515">pi0 checkpoint evolution by task type</text>
<text x="800" y="102" text-anchor="middle" font-family="Helvetica, Arial, sans-serif" font-size="20" fill="#474747">Subtask completion across RoboCerebra evaluation categories</text>
<text x="800" y="130" text-anchor="middle" font-family="Helvetica, Arial, sans-serif" font-size="14" fill="#666">Step 0 uses the previous pi0 evaluation as the baseline</text>
<rect x="140" y="175" width="1145" height="590" rx="16" fill="#ffffff" stroke="#ddd8ca"/>
<line x1="140" y1="765.0" x2="1285" y2="765.0" stroke="#e8e4d8" stroke-dasharray="5 6"/>
<text x="122" y="771.0" text-anchor="end" font-family="Helvetica, Arial, sans-serif" font-size="16" fill="#555">0</text>
<line x1="140" y1="666.7" x2="1285" y2="666.7" stroke="#e8e4d8" stroke-dasharray="5 6"/>
<text x="122" y="672.7" text-anchor="end" font-family="Helvetica, Arial, sans-serif" font-size="16" fill="#555">5</text>
<line x1="140" y1="568.3" x2="1285" y2="568.3" stroke="#e8e4d8" stroke-dasharray="5 6"/>
<text x="122" y="574.3" text-anchor="end" font-family="Helvetica, Arial, sans-serif" font-size="16" fill="#555">10</text>
<line x1="140" y1="470.0" x2="1285" y2="470.0" stroke="#e8e4d8" stroke-dasharray="5 6"/>
<text x="122" y="476.0" text-anchor="end" font-family="Helvetica, Arial, sans-serif" font-size="16" fill="#555">15</text>
<line x1="140" y1="371.7" x2="1285" y2="371.7" stroke="#e8e4d8" stroke-dasharray="5 6"/>
<text x="122" y="377.7" text-anchor="end" font-family="Helvetica, Arial, sans-serif" font-size="16" fill="#555">20</text>
<line x1="140" y1="273.3" x2="1285" y2="273.3" stroke="#e8e4d8" stroke-dasharray="5 6"/>
<text x="122" y="279.3" text-anchor="end" font-family="Helvetica, Arial, sans-serif" font-size="16" fill="#555">25</text>
<line x1="140" y1="175.0" x2="1285" y2="175.0" stroke="#e8e4d8" stroke-dasharray="5 6"/>
<text x="122" y="181.0" text-anchor="end" font-family="Helvetica, Arial, sans-serif" font-size="16" fill="#555">30</text>
<line x1="140.0" y1="175" x2="140.0" y2="765" stroke="#efeadc" stroke-width="1"/>
<text x="140.0" y="795" text-anchor="middle" font-family="Helvetica, Arial, sans-serif" font-size="14" fill="#555">0</text>
<line x1="185.8" y1="175" x2="185.8" y2="765" stroke="#efeadc" stroke-width="1"/>
<text x="185.8" y="795" text-anchor="middle" font-family="Helvetica, Arial, sans-serif" font-size="14" fill="#555">5k</text>
<line x1="231.6" y1="175" x2="231.6" y2="765" stroke="#efeadc" stroke-width="1"/>
<text x="231.6" y="795" text-anchor="middle" font-family="Helvetica, Arial, sans-serif" font-size="14" fill="#555">10k</text>
<line x1="277.4" y1="175" x2="277.4" y2="765" stroke="#efeadc" stroke-width="1"/>
<text x="277.4" y="795" text-anchor="middle" font-family="Helvetica, Arial, sans-serif" font-size="14" fill="#555">15k</text>
<line x1="323.2" y1="175" x2="323.2" y2="765" stroke="#efeadc" stroke-width="1"/>
<text x="323.2" y="795" text-anchor="middle" font-family="Helvetica, Arial, sans-serif" font-size="14" fill="#555">20k</text>
<line x1="369.0" y1="175" x2="369.0" y2="765" stroke="#efeadc" stroke-width="1"/>
<text x="369.0" y="795" text-anchor="middle" font-family="Helvetica, Arial, sans-serif" font-size="14" fill="#555">25k</text>
<line x1="414.8" y1="175" x2="414.8" y2="765" stroke="#efeadc" stroke-width="1"/>
<text x="414.8" y="795" text-anchor="middle" font-family="Helvetica, Arial, sans-serif" font-size="14" fill="#555">30k</text>
<line x1="460.6" y1="175" x2="460.6" y2="765" stroke="#efeadc" stroke-width="1"/>
<text x="460.6" y="795" text-anchor="middle" font-family="Helvetica, Arial, sans-serif" font-size="14" fill="#555">35k</text>
<line x1="506.4" y1="175" x2="506.4" y2="765" stroke="#efeadc" stroke-width="1"/>
<text x="506.4" y="795" text-anchor="middle" font-family="Helvetica, Arial, sans-serif" font-size="14" fill="#555">40k</text>
<line x1="552.2" y1="175" x2="552.2" y2="765" stroke="#efeadc" stroke-width="1"/>
<text x="552.2" y="795" text-anchor="middle" font-family="Helvetica, Arial, sans-serif" font-size="14" fill="#555">45k</text>
<line x1="598.0" y1="175" x2="598.0" y2="765" stroke="#efeadc" stroke-width="1"/>
<text x="598.0" y="795" text-anchor="middle" font-family="Helvetica, Arial, sans-serif" font-size="14" fill="#555">50k</text>
<line x1="643.8" y1="175" x2="643.8" y2="765" stroke="#efeadc" stroke-width="1"/>
<text x="643.8" y="795" text-anchor="middle" font-family="Helvetica, Arial, sans-serif" font-size="14" fill="#555">55k</text>
<line x1="689.6" y1="175" x2="689.6" y2="765" stroke="#efeadc" stroke-width="1"/>
<text x="689.6" y="795" text-anchor="middle" font-family="Helvetica, Arial, sans-serif" font-size="14" fill="#555">60k</text>
<line x1="735.4" y1="175" x2="735.4" y2="765" stroke="#efeadc" stroke-width="1"/>
<text x="735.4" y="795" text-anchor="middle" font-family="Helvetica, Arial, sans-serif" font-size="14" fill="#555">65k</text>
<line x1="781.2" y1="175" x2="781.2" y2="765" stroke="#efeadc" stroke-width="1"/>
<text x="781.2" y="795" text-anchor="middle" font-family="Helvetica, Arial, sans-serif" font-size="14" fill="#555">70k</text>
<line x1="827.0" y1="175" x2="827.0" y2="765" stroke="#efeadc" stroke-width="1"/>
<text x="827.0" y="795" text-anchor="middle" font-family="Helvetica, Arial, sans-serif" font-size="14" fill="#555">75k</text>
<line x1="872.8" y1="175" x2="872.8" y2="765" stroke="#efeadc" stroke-width="1"/>
<text x="872.8" y="795" text-anchor="middle" font-family="Helvetica, Arial, sans-serif" font-size="14" fill="#555">80k</text>
<line x1="918.6" y1="175" x2="918.6" y2="765" stroke="#efeadc" stroke-width="1"/>
<text x="918.6" y="795" text-anchor="middle" font-family="Helvetica, Arial, sans-serif" font-size="14" fill="#555">85k</text>
<line x1="964.4" y1="175" x2="964.4" y2="765" stroke="#efeadc" stroke-width="1"/>
<text x="964.4" y="795" text-anchor="middle" font-family="Helvetica, Arial, sans-serif" font-size="14" fill="#555">90k</text>
<line x1="1010.2" y1="175" x2="1010.2" y2="765" stroke="#efeadc" stroke-width="1"/>
<text x="1010.2" y="795" text-anchor="middle" font-family="Helvetica, Arial, sans-serif" font-size="14" fill="#555">95k</text>
<line x1="1056.0" y1="175" x2="1056.0" y2="765" stroke="#efeadc" stroke-width="1"/>
<text x="1056.0" y="795" text-anchor="middle" font-family="Helvetica, Arial, sans-serif" font-size="14" fill="#555">100k</text>
<line x1="1101.8" y1="175" x2="1101.8" y2="765" stroke="#efeadc" stroke-width="1"/>
<text x="1101.8" y="795" text-anchor="middle" font-family="Helvetica, Arial, sans-serif" font-size="14" fill="#555">105k</text>
<line x1="1147.6" y1="175" x2="1147.6" y2="765" stroke="#efeadc" stroke-width="1"/>
<text x="1147.6" y="795" text-anchor="middle" font-family="Helvetica, Arial, sans-serif" font-size="14" fill="#555">110k</text>
<line x1="1193.4" y1="175" x2="1193.4" y2="765" stroke="#efeadc" stroke-width="1"/>
<text x="1193.4" y="795" text-anchor="middle" font-family="Helvetica, Arial, sans-serif" font-size="14" fill="#555">115k</text>
<line x1="1239.2" y1="175" x2="1239.2" y2="765" stroke="#efeadc" stroke-width="1"/>
<text x="1239.2" y="795" text-anchor="middle" font-family="Helvetica, Arial, sans-serif" font-size="14" fill="#555">120k</text>
<line x1="1285.0" y1="175" x2="1285.0" y2="765" stroke="#efeadc" stroke-width="1"/>
<text x="1285.0" y="795" text-anchor="middle" font-family="Helvetica, Arial, sans-serif" font-size="14" fill="#555">125k</text>
<polyline points="140.0,495.9 185.8,454.5 231.6,428.6 277.4,454.5 323.2,506.2 369.0,402.7 414.8,480.4 460.6,506.2 506.4,506.2 552.2,480.4 598.0,532.1 643.8,532.1 689.6,558.0 735.4,480.4 781.2,558.0 827.0,506.2 872.8,480.4 918.6,532.1 964.4,506.2 1010.2,480.4 1056.0,454.5 1101.8,506.2 1147.6,480.4 1193.4,558.0 1239.2,532.1 1285.0,532.1" fill="none" stroke="#4C78A8" stroke-width="4" stroke-linejoin="round" stroke-linecap="round" opacity="0.95"/>
<circle cx="140.0" cy="495.9" r="5" fill="#ffffff" stroke="#4C78A8" stroke-width="3"/>
<circle cx="185.8" cy="454.5" r="5" fill="#ffffff" stroke="#4C78A8" stroke-width="3"/>
<circle cx="231.6" cy="428.6" r="5" fill="#ffffff" stroke="#4C78A8" stroke-width="3"/>
<circle cx="277.4" cy="454.5" r="5" fill="#ffffff" stroke="#4C78A8" stroke-width="3"/>
<circle cx="323.2" cy="506.2" r="5" fill="#ffffff" stroke="#4C78A8" stroke-width="3"/>
<circle cx="369.0" cy="402.7" r="5" fill="#ffffff" stroke="#4C78A8" stroke-width="3"/>
<circle cx="414.8" cy="480.4" r="5" fill="#ffffff" stroke="#4C78A8" stroke-width="3"/>
<circle cx="460.6" cy="506.2" r="5" fill="#ffffff" stroke="#4C78A8" stroke-width="3"/>
<circle cx="506.4" cy="506.2" r="5" fill="#ffffff" stroke="#4C78A8" stroke-width="3"/>
<circle cx="552.2" cy="480.4" r="5" fill="#ffffff" stroke="#4C78A8" stroke-width="3"/>
<circle cx="598.0" cy="532.1" r="5" fill="#ffffff" stroke="#4C78A8" stroke-width="3"/>
<circle cx="643.8" cy="532.1" r="5" fill="#ffffff" stroke="#4C78A8" stroke-width="3"/>
<circle cx="689.6" cy="558.0" r="5" fill="#ffffff" stroke="#4C78A8" stroke-width="3"/>
<circle cx="735.4" cy="480.4" r="5" fill="#ffffff" stroke="#4C78A8" stroke-width="3"/>
<circle cx="781.2" cy="558.0" r="5" fill="#ffffff" stroke="#4C78A8" stroke-width="3"/>
<circle cx="827.0" cy="506.2" r="5" fill="#ffffff" stroke="#4C78A8" stroke-width="3"/>
<circle cx="872.8" cy="480.4" r="5" fill="#ffffff" stroke="#4C78A8" stroke-width="3"/>
<circle cx="918.6" cy="532.1" r="5" fill="#ffffff" stroke="#4C78A8" stroke-width="3"/>
<circle cx="964.4" cy="506.2" r="5" fill="#ffffff" stroke="#4C78A8" stroke-width="3"/>
<circle cx="1010.2" cy="480.4" r="5" fill="#ffffff" stroke="#4C78A8" stroke-width="3"/>
<circle cx="1056.0" cy="454.5" r="5" fill="#ffffff" stroke="#4C78A8" stroke-width="3"/>
<circle cx="1101.8" cy="506.2" r="5" fill="#ffffff" stroke="#4C78A8" stroke-width="3"/>
<circle cx="1147.6" cy="480.4" r="5" fill="#ffffff" stroke="#4C78A8" stroke-width="3"/>
<circle cx="1193.4" cy="558.0" r="5" fill="#ffffff" stroke="#4C78A8" stroke-width="3"/>
<circle cx="1239.2" cy="532.1" r="5" fill="#ffffff" stroke="#4C78A8" stroke-width="3"/>
<circle cx="1285.0" cy="532.1" r="5" fill="#ffffff" stroke="#4C78A8" stroke-width="3"/>
<polyline points="140.0,383.0 185.8,367.9 231.6,405.7 277.4,330.1 323.2,330.1 369.0,292.2 414.8,311.2 460.6,386.8 506.4,367.9 552.2,292.2 598.0,349.0 643.8,311.2 689.6,367.9 735.4,349.0 781.2,367.9 827.0,386.8 872.8,330.1 918.6,273.3 964.4,311.2 1010.2,330.1 1056.0,311.2 1101.8,330.1 1147.6,405.7 1193.4,367.9 1239.2,311.2 1285.0,349.0" fill="none" stroke="#E45756" stroke-width="4" stroke-linejoin="round" stroke-linecap="round" opacity="0.95"/>
<circle cx="140.0" cy="383.0" r="5" fill="#ffffff" stroke="#E45756" stroke-width="3"/>
<circle cx="185.8" cy="367.9" r="5" fill="#ffffff" stroke="#E45756" stroke-width="3"/>
<circle cx="231.6" cy="405.7" r="5" fill="#ffffff" stroke="#E45756" stroke-width="3"/>
<circle cx="277.4" cy="330.1" r="5" fill="#ffffff" stroke="#E45756" stroke-width="3"/>
<circle cx="323.2" cy="330.1" r="5" fill="#ffffff" stroke="#E45756" stroke-width="3"/>
<circle cx="369.0" cy="292.2" r="5" fill="#ffffff" stroke="#E45756" stroke-width="3"/>
<circle cx="414.8" cy="311.2" r="5" fill="#ffffff" stroke="#E45756" stroke-width="3"/>
<circle cx="460.6" cy="386.8" r="5" fill="#ffffff" stroke="#E45756" stroke-width="3"/>
<circle cx="506.4" cy="367.9" r="5" fill="#ffffff" stroke="#E45756" stroke-width="3"/>
<circle cx="552.2" cy="292.2" r="5" fill="#ffffff" stroke="#E45756" stroke-width="3"/>
<circle cx="598.0" cy="349.0" r="5" fill="#ffffff" stroke="#E45756" stroke-width="3"/>
<circle cx="643.8" cy="311.2" r="5" fill="#ffffff" stroke="#E45756" stroke-width="3"/>
<circle cx="689.6" cy="367.9" r="5" fill="#ffffff" stroke="#E45756" stroke-width="3"/>
<circle cx="735.4" cy="349.0" r="5" fill="#ffffff" stroke="#E45756" stroke-width="3"/>
<circle cx="781.2" cy="367.9" r="5" fill="#ffffff" stroke="#E45756" stroke-width="3"/>
<circle cx="827.0" cy="386.8" r="5" fill="#ffffff" stroke="#E45756" stroke-width="3"/>
<circle cx="872.8" cy="330.1" r="5" fill="#ffffff" stroke="#E45756" stroke-width="3"/>
<circle cx="918.6" cy="273.3" r="5" fill="#ffffff" stroke="#E45756" stroke-width="3"/>
<circle cx="964.4" cy="311.2" r="5" fill="#ffffff" stroke="#E45756" stroke-width="3"/>
<circle cx="1010.2" cy="330.1" r="5" fill="#ffffff" stroke="#E45756" stroke-width="3"/>
<circle cx="1056.0" cy="311.2" r="5" fill="#ffffff" stroke="#E45756" stroke-width="3"/>
<circle cx="1101.8" cy="330.1" r="5" fill="#ffffff" stroke="#E45756" stroke-width="3"/>
<circle cx="1147.6" cy="405.7" r="5" fill="#ffffff" stroke="#E45756" stroke-width="3"/>
<circle cx="1193.4" cy="367.9" r="5" fill="#ffffff" stroke="#E45756" stroke-width="3"/>
<circle cx="1239.2" cy="311.2" r="5" fill="#ffffff" stroke="#E45756" stroke-width="3"/>
<circle cx="1285.0" cy="349.0" r="5" fill="#ffffff" stroke="#E45756" stroke-width="3"/>
<polyline points="140.0,434.5 185.8,368.4 231.6,318.8 277.4,368.4 323.2,351.8 369.0,318.8 414.8,318.8 460.6,368.4 506.4,335.3 552.2,351.8 598.0,417.9 643.8,384.9 689.6,318.8 735.4,351.8 781.2,368.4 827.0,351.8 872.8,384.9 918.6,401.4 964.4,302.3 1010.2,368.4 1056.0,335.3 1101.8,384.9 1147.6,368.4 1193.4,417.9 1239.2,451.0 1285.0,368.4" fill="none" stroke="#72B7B2" stroke-width="4" stroke-linejoin="round" stroke-linecap="round" opacity="0.95"/>
<circle cx="140.0" cy="434.5" r="5" fill="#ffffff" stroke="#72B7B2" stroke-width="3"/>
<circle cx="185.8" cy="368.4" r="5" fill="#ffffff" stroke="#72B7B2" stroke-width="3"/>
<circle cx="231.6" cy="318.8" r="5" fill="#ffffff" stroke="#72B7B2" stroke-width="3"/>
<circle cx="277.4" cy="368.4" r="5" fill="#ffffff" stroke="#72B7B2" stroke-width="3"/>
<circle cx="323.2" cy="351.8" r="5" fill="#ffffff" stroke="#72B7B2" stroke-width="3"/>
<circle cx="369.0" cy="318.8" r="5" fill="#ffffff" stroke="#72B7B2" stroke-width="3"/>
<circle cx="414.8" cy="318.8" r="5" fill="#ffffff" stroke="#72B7B2" stroke-width="3"/>
<circle cx="460.6" cy="368.4" r="5" fill="#ffffff" stroke="#72B7B2" stroke-width="3"/>
<circle cx="506.4" cy="335.3" r="5" fill="#ffffff" stroke="#72B7B2" stroke-width="3"/>
<circle cx="552.2" cy="351.8" r="5" fill="#ffffff" stroke="#72B7B2" stroke-width="3"/>
<circle cx="598.0" cy="417.9" r="5" fill="#ffffff" stroke="#72B7B2" stroke-width="3"/>
<circle cx="643.8" cy="384.9" r="5" fill="#ffffff" stroke="#72B7B2" stroke-width="3"/>
<circle cx="689.6" cy="318.8" r="5" fill="#ffffff" stroke="#72B7B2" stroke-width="3"/>
<circle cx="735.4" cy="351.8" r="5" fill="#ffffff" stroke="#72B7B2" stroke-width="3"/>
<circle cx="781.2" cy="368.4" r="5" fill="#ffffff" stroke="#72B7B2" stroke-width="3"/>
<circle cx="827.0" cy="351.8" r="5" fill="#ffffff" stroke="#72B7B2" stroke-width="3"/>
<circle cx="872.8" cy="384.9" r="5" fill="#ffffff" stroke="#72B7B2" stroke-width="3"/>
<circle cx="918.6" cy="401.4" r="5" fill="#ffffff" stroke="#72B7B2" stroke-width="3"/>
<circle cx="964.4" cy="302.3" r="5" fill="#ffffff" stroke="#72B7B2" stroke-width="3"/>
<circle cx="1010.2" cy="368.4" r="5" fill="#ffffff" stroke="#72B7B2" stroke-width="3"/>
<circle cx="1056.0" cy="335.3" r="5" fill="#ffffff" stroke="#72B7B2" stroke-width="3"/>
<circle cx="1101.8" cy="384.9" r="5" fill="#ffffff" stroke="#72B7B2" stroke-width="3"/>
<circle cx="1147.6" cy="368.4" r="5" fill="#ffffff" stroke="#72B7B2" stroke-width="3"/>
<circle cx="1193.4" cy="417.9" r="5" fill="#ffffff" stroke="#72B7B2" stroke-width="3"/>
<circle cx="1239.2" cy="451.0" r="5" fill="#ffffff" stroke="#72B7B2" stroke-width="3"/>
<circle cx="1285.0" cy="368.4" r="5" fill="#ffffff" stroke="#72B7B2" stroke-width="3"/>
<polyline points="140.0,416.7 185.8,416.7 231.6,355.3 277.4,375.8 323.2,355.3 369.0,375.8 414.8,396.2 460.6,457.7 506.4,437.2 552.2,375.8 598.0,396.2 643.8,416.7 689.6,457.7 735.4,375.8 781.2,416.7 827.0,437.2 872.8,437.2 918.6,416.7 964.4,396.2 1010.2,457.7 1056.0,416.7 1101.8,478.2 1147.6,334.8 1193.4,498.7 1239.2,437.2 1285.0,437.2" fill="none" stroke="#F58518" stroke-width="4" stroke-linejoin="round" stroke-linecap="round" opacity="0.95"/>
<circle cx="140.0" cy="416.7" r="5" fill="#ffffff" stroke="#F58518" stroke-width="3"/>
<circle cx="185.8" cy="416.7" r="5" fill="#ffffff" stroke="#F58518" stroke-width="3"/>
<circle cx="231.6" cy="355.3" r="5" fill="#ffffff" stroke="#F58518" stroke-width="3"/>
<circle cx="277.4" cy="375.8" r="5" fill="#ffffff" stroke="#F58518" stroke-width="3"/>
<circle cx="323.2" cy="355.3" r="5" fill="#ffffff" stroke="#F58518" stroke-width="3"/>
<circle cx="369.0" cy="375.8" r="5" fill="#ffffff" stroke="#F58518" stroke-width="3"/>
<circle cx="414.8" cy="396.2" r="5" fill="#ffffff" stroke="#F58518" stroke-width="3"/>
<circle cx="460.6" cy="457.7" r="5" fill="#ffffff" stroke="#F58518" stroke-width="3"/>
<circle cx="506.4" cy="437.2" r="5" fill="#ffffff" stroke="#F58518" stroke-width="3"/>
<circle cx="552.2" cy="375.8" r="5" fill="#ffffff" stroke="#F58518" stroke-width="3"/>
<circle cx="598.0" cy="396.2" r="5" fill="#ffffff" stroke="#F58518" stroke-width="3"/>
<circle cx="643.8" cy="416.7" r="5" fill="#ffffff" stroke="#F58518" stroke-width="3"/>
<circle cx="689.6" cy="457.7" r="5" fill="#ffffff" stroke="#F58518" stroke-width="3"/>
<circle cx="735.4" cy="375.8" r="5" fill="#ffffff" stroke="#F58518" stroke-width="3"/>
<circle cx="781.2" cy="416.7" r="5" fill="#ffffff" stroke="#F58518" stroke-width="3"/>
<circle cx="827.0" cy="437.2" r="5" fill="#ffffff" stroke="#F58518" stroke-width="3"/>
<circle cx="872.8" cy="437.2" r="5" fill="#ffffff" stroke="#F58518" stroke-width="3"/>
<circle cx="918.6" cy="416.7" r="5" fill="#ffffff" stroke="#F58518" stroke-width="3"/>
<circle cx="964.4" cy="396.2" r="5" fill="#ffffff" stroke="#F58518" stroke-width="3"/>
<circle cx="1010.2" cy="457.7" r="5" fill="#ffffff" stroke="#F58518" stroke-width="3"/>
<circle cx="1056.0" cy="416.7" r="5" fill="#ffffff" stroke="#F58518" stroke-width="3"/>
<circle cx="1101.8" cy="478.2" r="5" fill="#ffffff" stroke="#F58518" stroke-width="3"/>
<circle cx="1147.6" cy="334.8" r="5" fill="#ffffff" stroke="#F58518" stroke-width="3"/>
<circle cx="1193.4" cy="498.7" r="5" fill="#ffffff" stroke="#F58518" stroke-width="3"/>
<circle cx="1239.2" cy="437.2" r="5" fill="#ffffff" stroke="#F58518" stroke-width="3"/>
<circle cx="1285.0" cy="437.2" r="5" fill="#ffffff" stroke="#F58518" stroke-width="3"/>
<polyline points="140.0,461.1 185.8,467.0 231.6,467.0 277.4,496.8 323.2,377.6 369.0,437.2 414.8,526.6 460.6,437.2 506.4,467.0 552.2,437.2 598.0,467.0 643.8,526.6 689.6,437.2 735.4,467.0 781.2,467.0 827.0,496.8 872.8,437.2 918.6,437.2 964.4,467.0 1010.2,437.2 1056.0,437.2 1101.8,437.2 1147.6,437.2 1193.4,467.0 1239.2,467.0 1285.0,407.4" fill="none" stroke="#54A24B" stroke-width="4" stroke-linejoin="round" stroke-linecap="round" opacity="0.95"/>
<circle cx="140.0" cy="461.1" r="5" fill="#ffffff" stroke="#54A24B" stroke-width="3"/>
<circle cx="185.8" cy="467.0" r="5" fill="#ffffff" stroke="#54A24B" stroke-width="3"/>
<circle cx="231.6" cy="467.0" r="5" fill="#ffffff" stroke="#54A24B" stroke-width="3"/>
<circle cx="277.4" cy="496.8" r="5" fill="#ffffff" stroke="#54A24B" stroke-width="3"/>
<circle cx="323.2" cy="377.6" r="5" fill="#ffffff" stroke="#54A24B" stroke-width="3"/>
<circle cx="369.0" cy="437.2" r="5" fill="#ffffff" stroke="#54A24B" stroke-width="3"/>
<circle cx="414.8" cy="526.6" r="5" fill="#ffffff" stroke="#54A24B" stroke-width="3"/>
<circle cx="460.6" cy="437.2" r="5" fill="#ffffff" stroke="#54A24B" stroke-width="3"/>
<circle cx="506.4" cy="467.0" r="5" fill="#ffffff" stroke="#54A24B" stroke-width="3"/>
<circle cx="552.2" cy="437.2" r="5" fill="#ffffff" stroke="#54A24B" stroke-width="3"/>
<circle cx="598.0" cy="467.0" r="5" fill="#ffffff" stroke="#54A24B" stroke-width="3"/>
<circle cx="643.8" cy="526.6" r="5" fill="#ffffff" stroke="#54A24B" stroke-width="3"/>
<circle cx="689.6" cy="437.2" r="5" fill="#ffffff" stroke="#54A24B" stroke-width="3"/>
<circle cx="735.4" cy="467.0" r="5" fill="#ffffff" stroke="#54A24B" stroke-width="3"/>
<circle cx="781.2" cy="467.0" r="5" fill="#ffffff" stroke="#54A24B" stroke-width="3"/>
<circle cx="827.0" cy="496.8" r="5" fill="#ffffff" stroke="#54A24B" stroke-width="3"/>
<circle cx="872.8" cy="437.2" r="5" fill="#ffffff" stroke="#54A24B" stroke-width="3"/>
<circle cx="918.6" cy="437.2" r="5" fill="#ffffff" stroke="#54A24B" stroke-width="3"/>
<circle cx="964.4" cy="467.0" r="5" fill="#ffffff" stroke="#54A24B" stroke-width="3"/>
<circle cx="1010.2" cy="437.2" r="5" fill="#ffffff" stroke="#54A24B" stroke-width="3"/>
<circle cx="1056.0" cy="437.2" r="5" fill="#ffffff" stroke="#54A24B" stroke-width="3"/>
<circle cx="1101.8" cy="437.2" r="5" fill="#ffffff" stroke="#54A24B" stroke-width="3"/>
<circle cx="1147.6" cy="437.2" r="5" fill="#ffffff" stroke="#54A24B" stroke-width="3"/>
<circle cx="1193.4" cy="467.0" r="5" fill="#ffffff" stroke="#54A24B" stroke-width="3"/>
<circle cx="1239.2" cy="467.0" r="5" fill="#ffffff" stroke="#54A24B" stroke-width="3"/>
<circle cx="1285.0" cy="407.4" r="5" fill="#ffffff" stroke="#54A24B" stroke-width="3"/>
<polyline points="140.0,464.8 185.8,480.4 231.6,428.6 277.4,428.6 323.2,454.5 369.0,480.4 414.8,480.4 460.6,428.6 506.4,428.6 552.2,351.0 598.0,480.4 643.8,428.6 689.6,376.8 735.4,428.6 781.2,454.5 827.0,480.4 872.8,428.6 918.6,506.2 964.4,454.5 1010.2,428.6 1056.0,428.6 1101.8,402.7 1147.6,428.6 1193.4,402.7 1239.2,376.8 1285.0,402.7" fill="none" stroke="#B279A2" stroke-width="4" stroke-linejoin="round" stroke-linecap="round" opacity="0.95"/>
<circle cx="140.0" cy="464.8" r="5" fill="#ffffff" stroke="#B279A2" stroke-width="3"/>
<circle cx="185.8" cy="480.4" r="5" fill="#ffffff" stroke="#B279A2" stroke-width="3"/>
<circle cx="231.6" cy="428.6" r="5" fill="#ffffff" stroke="#B279A2" stroke-width="3"/>
<circle cx="277.4" cy="428.6" r="5" fill="#ffffff" stroke="#B279A2" stroke-width="3"/>
<circle cx="323.2" cy="454.5" r="5" fill="#ffffff" stroke="#B279A2" stroke-width="3"/>
<circle cx="369.0" cy="480.4" r="5" fill="#ffffff" stroke="#B279A2" stroke-width="3"/>
<circle cx="414.8" cy="480.4" r="5" fill="#ffffff" stroke="#B279A2" stroke-width="3"/>
<circle cx="460.6" cy="428.6" r="5" fill="#ffffff" stroke="#B279A2" stroke-width="3"/>
<circle cx="506.4" cy="428.6" r="5" fill="#ffffff" stroke="#B279A2" stroke-width="3"/>
<circle cx="552.2" cy="351.0" r="5" fill="#ffffff" stroke="#B279A2" stroke-width="3"/>
<circle cx="598.0" cy="480.4" r="5" fill="#ffffff" stroke="#B279A2" stroke-width="3"/>
<circle cx="643.8" cy="428.6" r="5" fill="#ffffff" stroke="#B279A2" stroke-width="3"/>
<circle cx="689.6" cy="376.8" r="5" fill="#ffffff" stroke="#B279A2" stroke-width="3"/>
<circle cx="735.4" cy="428.6" r="5" fill="#ffffff" stroke="#B279A2" stroke-width="3"/>
<circle cx="781.2" cy="454.5" r="5" fill="#ffffff" stroke="#B279A2" stroke-width="3"/>
<circle cx="827.0" cy="480.4" r="5" fill="#ffffff" stroke="#B279A2" stroke-width="3"/>
<circle cx="872.8" cy="428.6" r="5" fill="#ffffff" stroke="#B279A2" stroke-width="3"/>
<circle cx="918.6" cy="506.2" r="5" fill="#ffffff" stroke="#B279A2" stroke-width="3"/>
<circle cx="964.4" cy="454.5" r="5" fill="#ffffff" stroke="#B279A2" stroke-width="3"/>
<circle cx="1010.2" cy="428.6" r="5" fill="#ffffff" stroke="#B279A2" stroke-width="3"/>
<circle cx="1056.0" cy="428.6" r="5" fill="#ffffff" stroke="#B279A2" stroke-width="3"/>
<circle cx="1101.8" cy="402.7" r="5" fill="#ffffff" stroke="#B279A2" stroke-width="3"/>
<circle cx="1147.6" cy="428.6" r="5" fill="#ffffff" stroke="#B279A2" stroke-width="3"/>
<circle cx="1193.4" cy="402.7" r="5" fill="#ffffff" stroke="#B279A2" stroke-width="3"/>
<circle cx="1239.2" cy="376.8" r="5" fill="#ffffff" stroke="#B279A2" stroke-width="3"/>
<circle cx="1285.0" cy="402.7" r="5" fill="#ffffff" stroke="#B279A2" stroke-width="3"/>
<line x1="1327" y1="191" x2="1361" y2="191" stroke="#4C78A8" stroke-width="5" stroke-linecap="round"/>
<circle cx="1344" cy="191" r="5" fill="#ffffff" stroke="#4C78A8" stroke-width="3"/>
<text x="1375" y="197" font-family="Helvetica, Arial, sans-serif" font-size="18" fill="#222">Ideal</text>
<line x1="1327" y1="233" x2="1361" y2="233" stroke="#E45756" stroke-width="5" stroke-linecap="round"/>
<circle cx="1344" cy="233" r="5" fill="#ffffff" stroke="#E45756" stroke-width="3"/>
<text x="1375" y="239" font-family="Helvetica, Arial, sans-serif" font-size="18" fill="#222">Memory exec.</text>
<line x1="1327" y1="275" x2="1361" y2="275" stroke="#72B7B2" stroke-width="5" stroke-linecap="round"/>
<circle cx="1344" cy="275" r="5" fill="#ffffff" stroke="#72B7B2" stroke-width="3"/>
<text x="1375" y="281" font-family="Helvetica, Arial, sans-serif" font-size="18" fill="#222">Memory expl.</text>
<line x1="1327" y1="317" x2="1361" y2="317" stroke="#F58518" stroke-width="5" stroke-linecap="round"/>
<circle cx="1344" cy="317" r="5" fill="#ffffff" stroke="#F58518" stroke-width="3"/>
<text x="1375" y="323" font-family="Helvetica, Arial, sans-serif" font-size="18" fill="#222">Mix</text>
<line x1="1327" y1="359" x2="1361" y2="359" stroke="#54A24B" stroke-width="5" stroke-linecap="round"/>
<circle cx="1344" cy="359" r="5" fill="#ffffff" stroke="#54A24B" stroke-width="3"/>
<text x="1375" y="365" font-family="Helvetica, Arial, sans-serif" font-size="18" fill="#222">Obs. mismatch</text>
<line x1="1327" y1="401" x2="1361" y2="401" stroke="#B279A2" stroke-width="5" stroke-linecap="round"/>
<circle cx="1344" cy="401" r="5" fill="#ffffff" stroke="#B279A2" stroke-width="3"/>
<text x="1375" y="407" font-family="Helvetica, Arial, sans-serif" font-size="18" fill="#222">Random disturb.</text>
<text x="712.5" y="868" text-anchor="middle" font-family="Helvetica, Arial, sans-serif" font-size="19" fill="#333">Training checkpoint step</text>
<text x="52" y="470.0" transform="rotate(-90 52,470.0)" text-anchor="middle" font-family="Helvetica, Arial, sans-serif" font-size="19" fill="#333">Subtask completion (%)</text>
<text x="140" y="912" font-family="Helvetica, Arial, sans-serif" font-size="14" fill="#666">Note: category curves are noisy because checkpoint runs use fewer trials than the step-0 baseline.</text>
</svg>