<svg xmlns="http://www.w3.org/2000/svg" width="1600" height="940" viewBox="0 0 1600 940">
<rect width="100%" height="100%" fill="#fbfaf5"/>
<text x="800" y="64" text-anchor="middle" font-family="Helvetica, Arial, sans-serif" font-size="34" font-weight="700" fill="#151515">OpenVLA per-case subtask completion</text>
<text x="800" y="102" text-anchor="middle" font-family="Helvetica, Arial, sans-serif" font-size="20" fill="#474747">LIBERO Spatial | Heatmap by task type and case</text>
<text x="800" y="128" text-anchor="middle" font-family="Helvetica, Arial, sans-serif" font-size="12" fill="#666">Run: EVAL-robocerebra-pi0-2026_03_31-15_53_46</text>
<rect x="120" y="180" width="1350" height="600" rx="18" fill="#ffffff" stroke="#ddd8ca"/>
<text x="355.6" y="774.0" text-anchor="middle" font-family="Helvetica, Arial, sans-serif" font-size="18" fill="#555">C1</text>
<text x="466.8" y="774.0" text-anchor="middle" font-family="Helvetica, Arial, sans-serif" font-size="18" fill="#555">C2</text>
<text x="578.0" y="774.0" text-anchor="middle" font-family="Helvetica, Arial, sans-serif" font-size="18" fill="#555">C3</text>
<text x="689.2" y="774.0" text-anchor="middle" font-family="Helvetica, Arial, sans-serif" font-size="18" fill="#555">C4</text>
<text x="800.4" y="774.0" text-anchor="middle" font-family="Helvetica, Arial, sans-serif" font-size="18" fill="#555">C5</text>
<text x="911.6" y="774.0" text-anchor="middle" font-family="Helvetica, Arial, sans-serif" font-size="18" fill="#555">C6</text>
<text x="1022.8" y="774.0" text-anchor="middle" font-family="Helvetica, Arial, sans-serif" font-size="18" fill="#555">C7</text>
<text x="1134.0" y="774.0" text-anchor="middle" font-family="Helvetica, Arial, sans-serif" font-size="18" fill="#555">C8</text>
<text x="1245.2" y="774.0" text-anchor="middle" font-family="Helvetica, Arial, sans-serif" font-size="18" fill="#555">C9</text>
<text x="1356.4" y="774.0" text-anchor="middle" font-family="Helvetica, Arial, sans-serif" font-size="18" fill="#555">C10</text>
<text x="144" y="262.2" font-family="Helvetica, Arial, sans-serif" font-size="24" fill="#1f1f1f">Ideal</text>
<rect x="300.0" y="210.0" width="105.2" height="82.3" rx="8" fill="#fff7bc" stroke="#ffffff" stroke-width="1.5"/>
<text x="352.6" y="259.2" text-anchor="middle" font-family="Helvetica, Arial, sans-serif" font-size="18" font-weight="700" fill="#10212b">0.0</text>
<rect x="411.2" y="210.0" width="105.2" height="82.3" rx="8" fill="#fff7bc" stroke="#ffffff" stroke-width="1.5"/>
<text x="463.8" y="259.2" text-anchor="middle" font-family="Helvetica, Arial, sans-serif" font-size="18" font-weight="700" fill="#10212b">0.0</text>
<rect x="522.4" y="210.0" width="105.2" height="82.3" rx="8" fill="#5288a7" stroke="#ffffff" stroke-width="1.5"/>
<text x="575.0" y="259.2" text-anchor="middle" font-family="Helvetica, Arial, sans-serif" font-size="18" font-weight="700" fill="#ffffff">28.0</text>
<rect x="633.6" y="210.0" width="105.2" height="82.3" rx="8" fill="#fff7bc" stroke="#ffffff" stroke-width="1.5"/>
<text x="686.2" y="259.2" text-anchor="middle" font-family="Helvetica, Arial, sans-serif" font-size="18" font-weight="700" fill="#10212b">0.0</text>
<rect x="744.8" y="210.0" width="105.2" height="82.3" rx="8" fill="#3172a3" stroke="#ffffff" stroke-width="1.5"/>
<text x="797.4" y="259.2" text-anchor="middle" font-family="Helvetica, Arial, sans-serif" font-size="18" font-weight="700" fill="#ffffff">33.3</text>
<rect x="856.0" y="210.0" width="105.2" height="82.3" rx="8" fill="#98b5b0" stroke="#ffffff" stroke-width="1.5"/>
<text x="908.6" y="259.2" text-anchor="middle" font-family="Helvetica, Arial, sans-serif" font-size="18" font-weight="700" fill="#10212b">16.7</text>
<rect x="967.2" y="210.0" width="105.2" height="82.3" rx="8" fill="#fff7bc" stroke="#ffffff" stroke-width="1.5"/>
<text x="1019.8" y="259.2" text-anchor="middle" font-family="Helvetica, Arial, sans-serif" font-size="18" font-weight="700" fill="#10212b">0.0</text>
<rect x="1078.4" y="210.0" width="105.2" height="82.3" rx="8" fill="#cad5b6" stroke="#ffffff" stroke-width="1.5"/>
<text x="1131.0" y="259.2" text-anchor="middle" font-family="Helvetica, Arial, sans-serif" font-size="18" font-weight="700" fill="#10212b">8.6</text>
<rect x="1189.6" y="210.0" width="105.2" height="82.3" rx="8" fill="#8fafae" stroke="#ffffff" stroke-width="1.5"/>
<text x="1242.2" y="259.2" text-anchor="middle" font-family="Helvetica, Arial, sans-serif" font-size="18" font-weight="700" fill="#ffffff">18.2</text>
<rect x="1300.8" y="210.0" width="105.2" height="82.3" rx="8" fill="#a0bab0" stroke="#ffffff" stroke-width="1.5"/>
<text x="1353.4" y="259.2" text-anchor="middle" font-family="Helvetica, Arial, sans-serif" font-size="18" font-weight="700" fill="#10212b">15.4</text>
<text x="144" y="350.5" font-family="Helvetica, Arial, sans-serif" font-size="24" fill="#1f1f1f">Memory exec.</text>
<rect x="300.0" y="298.3" width="105.2" height="82.3" rx="8" fill="#fff7bc" stroke="#ffffff" stroke-width="1.5"/>
<text x="352.6" y="347.5" text-anchor="middle" font-family="Helvetica, Arial, sans-serif" font-size="18" font-weight="700" fill="#10212b">0.0</text>
<rect x="411.2" y="298.3" width="105.2" height="82.3" rx="8" fill="#fff7bc" stroke="#ffffff" stroke-width="1.5"/>
<text x="463.8" y="347.5" text-anchor="middle" font-family="Helvetica, Arial, sans-serif" font-size="18" font-weight="700" fill="#10212b">0.0</text>
<rect x="522.4" y="298.3" width="105.2" height="82.3" rx="8" fill="#fff7bc" stroke="#ffffff" stroke-width="1.5"/>
<text x="575.0" y="347.5" text-anchor="middle" font-family="Helvetica, Arial, sans-serif" font-size="18" font-weight="700" fill="#10212b">0.0</text>
<rect x="633.6" y="298.3" width="105.2" height="82.3" rx="8" fill="#6594a9" stroke="#ffffff" stroke-width="1.5"/>
<text x="686.2" y="347.5" text-anchor="middle" font-family="Helvetica, Arial, sans-serif" font-size="18" font-weight="700" fill="#ffffff">25.0</text>
<rect x="744.8" y="298.3" width="105.2" height="82.3" rx="8" fill="#4f85a7" stroke="#ffffff" stroke-width="1.5"/>
<text x="797.4" y="347.5" text-anchor="middle" font-family="Helvetica, Arial, sans-serif" font-size="18" font-weight="700" fill="#ffffff">28.6</text>
<rect x="856.0" y="298.3" width="105.2" height="82.3" rx="8" fill="#6594a9" stroke="#ffffff" stroke-width="1.5"/>
<text x="908.6" y="347.5" text-anchor="middle" font-family="Helvetica, Arial, sans-serif" font-size="18" font-weight="700" fill="#ffffff">25.0</text>
<rect x="967.2" y="298.3" width="105.2" height="82.3" rx="8" fill="#6f9aaa" stroke="#ffffff" stroke-width="1.5"/>
<text x="1019.8" y="347.5" text-anchor="middle" font-family="Helvetica, Arial, sans-serif" font-size="18" font-weight="700" fill="#ffffff">23.3</text>
<rect x="1078.4" y="298.3" width="105.2" height="82.3" rx="8" fill="#578ba8" stroke="#ffffff" stroke-width="1.5"/>
<text x="1131.0" y="347.5" text-anchor="middle" font-family="Helvetica, Arial, sans-serif" font-size="18" font-weight="700" fill="#ffffff">27.1</text>
<rect x="1189.6" y="298.3" width="105.2" height="82.3" rx="8" fill="#4f85a7" stroke="#ffffff" stroke-width="1.5"/>
<text x="1242.2" y="347.5" text-anchor="middle" font-family="Helvetica, Arial, sans-serif" font-size="18" font-weight="700" fill="#ffffff">28.6</text>
<rect x="1300.8" y="298.3" width="105.2" height="82.3" rx="8" fill="#8cadae" stroke="#ffffff" stroke-width="1.5"/>
<text x="1353.4" y="347.5" text-anchor="middle" font-family="Helvetica, Arial, sans-serif" font-size="18" font-weight="700" fill="#ffffff">18.6</text>
<text x="144" y="438.8" font-family="Helvetica, Arial, sans-serif" font-size="24" fill="#1f1f1f">Memory expl.</text>
<rect x="300.0" y="386.7" width="105.2" height="82.3" rx="8" fill="#8eaeae" stroke="#ffffff" stroke-width="1.5"/>
<text x="352.6" y="435.8" text-anchor="middle" font-family="Helvetica, Arial, sans-serif" font-size="18" font-weight="700" fill="#ffffff">18.3</text>
<rect x="411.2" y="386.7" width="105.2" height="82.3" rx="8" fill="#84a8ad" stroke="#ffffff" stroke-width="1.5"/>
<text x="463.8" y="435.8" text-anchor="middle" font-family="Helvetica, Arial, sans-serif" font-size="18" font-weight="700" fill="#ffffff">20.0</text>
<rect x="522.4" y="386.7" width="105.2" height="82.3" rx="8" fill="#ccd6b6" stroke="#ffffff" stroke-width="1.5"/>
<text x="575.0" y="435.8" text-anchor="middle" font-family="Helvetica, Arial, sans-serif" font-size="18" font-weight="700" fill="#10212b">8.3</text>
<rect x="633.6" y="386.7" width="105.2" height="82.3" rx="8" fill="#b5c7b3" stroke="#ffffff" stroke-width="1.5"/>
<text x="686.2" y="435.8" text-anchor="middle" font-family="Helvetica, Arial, sans-serif" font-size="18" font-weight="700" fill="#10212b">12.0</text>
<rect x="744.8" y="386.7" width="105.2" height="82.3" rx="8" fill="#d3dbb7" stroke="#ffffff" stroke-width="1.5"/>
<text x="797.4" y="435.8" text-anchor="middle" font-family="Helvetica, Arial, sans-serif" font-size="18" font-weight="700" fill="#10212b">7.1</text>
<rect x="856.0" y="386.7" width="105.2" height="82.3" rx="8" fill="#6594a9" stroke="#ffffff" stroke-width="1.5"/>
<text x="908.6" y="435.8" text-anchor="middle" font-family="Helvetica, Arial, sans-serif" font-size="18" font-weight="700" fill="#ffffff">25.0</text>
<rect x="967.2" y="386.7" width="105.2" height="82.3" rx="8" fill="#84a8ad" stroke="#ffffff" stroke-width="1.5"/>
<text x="1019.8" y="435.8" text-anchor="middle" font-family="Helvetica, Arial, sans-serif" font-size="18" font-weight="700" fill="#ffffff">20.0</text>
<rect x="1078.4" y="386.7" width="105.2" height="82.3" rx="8" fill="#84a8ad" stroke="#ffffff" stroke-width="1.5"/>
<text x="1131.0" y="435.8" text-anchor="middle" font-family="Helvetica, Arial, sans-serif" font-size="18" font-weight="700" fill="#ffffff">20.0</text>
<rect x="1189.6" y="386.7" width="105.2" height="82.3" rx="8" fill="#8daeae" stroke="#ffffff" stroke-width="1.5"/>
<text x="1242.2" y="435.8" text-anchor="middle" font-family="Helvetica, Arial, sans-serif" font-size="18" font-weight="700" fill="#ffffff">18.5</text>
<rect x="1300.8" y="386.7" width="105.2" height="82.3" rx="8" fill="#84a8ad" stroke="#ffffff" stroke-width="1.5"/>
<text x="1353.4" y="435.8" text-anchor="middle" font-family="Helvetica, Arial, sans-serif" font-size="18" font-weight="700" fill="#ffffff">20.0</text>
<text x="144" y="527.2" font-family="Helvetica, Arial, sans-serif" font-size="24" fill="#1f1f1f">Mix</text>
<rect x="300.0" y="475.0" width="105.2" height="82.3" rx="8" fill="#8fafae" stroke="#ffffff" stroke-width="1.5"/>
<text x="352.6" y="524.2" text-anchor="middle" font-family="Helvetica, Arial, sans-serif" font-size="18" font-weight="700" fill="#ffffff">18.2</text>
<rect x="411.2" y="475.0" width="105.2" height="82.3" rx="8" fill="#3f7ba5" stroke="#ffffff" stroke-width="1.5"/>
<text x="463.8" y="524.2" text-anchor="middle" font-family="Helvetica, Arial, sans-serif" font-size="18" font-weight="700" fill="#ffffff">31.1</text>
<rect x="522.4" y="475.0" width="105.2" height="82.3" rx="8" fill="#3575a3" stroke="#ffffff" stroke-width="1.5"/>
<text x="575.0" y="524.2" text-anchor="middle" font-family="Helvetica, Arial, sans-serif" font-size="18" font-weight="700" fill="#ffffff">32.7</text>
<rect x="633.6" y="475.0" width="105.2" height="82.3" rx="8" fill="#8fafae" stroke="#ffffff" stroke-width="1.5"/>
<text x="686.2" y="524.2" text-anchor="middle" font-family="Helvetica, Arial, sans-serif" font-size="18" font-weight="700" fill="#ffffff">18.2</text>
<rect x="744.8" y="475.0" width="105.2" height="82.3" rx="8" fill="#aac0b2" stroke="#ffffff" stroke-width="1.5"/>
<text x="797.4" y="524.2" text-anchor="middle" font-family="Helvetica, Arial, sans-serif" font-size="18" font-weight="700" fill="#10212b">13.8</text>
<rect x="856.0" y="475.0" width="105.2" height="82.3" rx="8" fill="#84a8ad" stroke="#ffffff" stroke-width="1.5"/>
<text x="908.6" y="524.2" text-anchor="middle" font-family="Helvetica, Arial, sans-serif" font-size="18" font-weight="700" fill="#ffffff">20.0</text>
<rect x="967.2" y="475.0" width="105.2" height="82.3" rx="8" fill="#fff7bc" stroke="#ffffff" stroke-width="1.5"/>
<text x="1019.8" y="524.2" text-anchor="middle" font-family="Helvetica, Arial, sans-serif" font-size="18" font-weight="700" fill="#10212b">0.0</text>
<rect x="1078.4" y="475.0" width="105.2" height="82.3" rx="8" fill="#fff7bc" stroke="#ffffff" stroke-width="1.5"/>
<text x="1131.0" y="524.2" text-anchor="middle" font-family="Helvetica, Arial, sans-serif" font-size="18" font-weight="700" fill="#10212b">0.0</text>
<rect x="1189.6" y="475.0" width="105.2" height="82.3" rx="8" fill="#fff7bc" stroke="#ffffff" stroke-width="1.5"/>
<text x="1242.2" y="524.2" text-anchor="middle" font-family="Helvetica, Arial, sans-serif" font-size="18" font-weight="700" fill="#10212b">0.0</text>
<rect x="1300.8" y="475.0" width="105.2" height="82.3" rx="8" fill="#6594a9" stroke="#ffffff" stroke-width="1.5"/>
<text x="1353.4" y="524.2" text-anchor="middle" font-family="Helvetica, Arial, sans-serif" font-size="18" font-weight="700" fill="#ffffff">25.0</text>
<text x="144" y="615.5" font-family="Helvetica, Arial, sans-serif" font-size="24" fill="#1f1f1f">Obs. mismatch</text>
<rect x="300.0" y="563.3" width="105.2" height="82.3" rx="8" fill="#fff7bc" stroke="#ffffff" stroke-width="1.5"/>
<text x="352.6" y="612.5" text-anchor="middle" font-family="Helvetica, Arial, sans-serif" font-size="18" font-weight="700" fill="#10212b">0.0</text>
<rect x="411.2" y="563.3" width="105.2" height="82.3" rx="8" fill="#fff7bc" stroke="#ffffff" stroke-width="1.5"/>
<text x="463.8" y="612.5" text-anchor="middle" font-family="Helvetica, Arial, sans-serif" font-size="18" font-weight="700" fill="#10212b">0.0</text>
<rect x="522.4" y="563.3" width="105.2" height="82.3" rx="8" fill="#84a8ad" stroke="#ffffff" stroke-width="1.5"/>
<text x="575.0" y="612.5" text-anchor="middle" font-family="Helvetica, Arial, sans-serif" font-size="18" font-weight="700" fill="#ffffff">20.0</text>
<rect x="633.6" y="563.3" width="105.2" height="82.3" rx="8" fill="#e6e7b9" stroke="#ffffff" stroke-width="1.5"/>
<text x="686.2" y="612.5" text-anchor="middle" font-family="Helvetica, Arial, sans-serif" font-size="18" font-weight="700" fill="#10212b">4.0</text>
<rect x="744.8" y="563.3" width="105.2" height="82.3" rx="8" fill="#08589e" stroke="#ffffff" stroke-width="1.5"/>
<text x="797.4" y="612.5" text-anchor="middle" font-family="Helvetica, Arial, sans-serif" font-size="18" font-weight="700" fill="#ffffff">40.0</text>
<rect x="856.0" y="563.3" width="105.2" height="82.3" rx="8" fill="#84a8ad" stroke="#ffffff" stroke-width="1.5"/>
<text x="908.6" y="612.5" text-anchor="middle" font-family="Helvetica, Arial, sans-serif" font-size="18" font-weight="700" fill="#ffffff">20.0</text>
<rect x="967.2" y="563.3" width="105.2" height="82.3" rx="8" fill="#eaeaba" stroke="#ffffff" stroke-width="1.5"/>
<text x="1019.8" y="612.5" text-anchor="middle" font-family="Helvetica, Arial, sans-serif" font-size="18" font-weight="700" fill="#10212b">3.3</text>
<rect x="1078.4" y="563.3" width="105.2" height="82.3" rx="8" fill="#c1cfb4" stroke="#ffffff" stroke-width="1.5"/>
<text x="1131.0" y="612.5" text-anchor="middle" font-family="Helvetica, Arial, sans-serif" font-size="18" font-weight="700" fill="#10212b">10.0</text>
<rect x="1189.6" y="563.3" width="105.2" height="82.3" rx="8" fill="#84a8ad" stroke="#ffffff" stroke-width="1.5"/>
<text x="1242.2" y="612.5" text-anchor="middle" font-family="Helvetica, Arial, sans-serif" font-size="18" font-weight="700" fill="#ffffff">20.0</text>
<rect x="1300.8" y="563.3" width="105.2" height="82.3" rx="8" fill="#84a8ad" stroke="#ffffff" stroke-width="1.5"/>
<text x="1353.4" y="612.5" text-anchor="middle" font-family="Helvetica, Arial, sans-serif" font-size="18" font-weight="700" fill="#ffffff">20.0</text>
<text x="144" y="703.8" font-family="Helvetica, Arial, sans-serif" font-size="24" fill="#1f1f1f">Random disturb.</text>
<rect x="300.0" y="651.7" width="105.2" height="82.3" rx="8" fill="#fff7bc" stroke="#ffffff" stroke-width="1.5"/>
<text x="352.6" y="700.8" text-anchor="middle" font-family="Helvetica, Arial, sans-serif" font-size="18" font-weight="700" fill="#10212b">0.0</text>
<rect x="411.2" y="651.7" width="105.2" height="82.3" rx="8" fill="#fff7bc" stroke="#ffffff" stroke-width="1.5"/>
<text x="463.8" y="700.8" text-anchor="middle" font-family="Helvetica, Arial, sans-serif" font-size="18" font-weight="700" fill="#10212b">0.0</text>
<rect x="522.4" y="651.7" width="105.2" height="82.3" rx="8" fill="#4680a6" stroke="#ffffff" stroke-width="1.5"/>
<text x="575.0" y="700.8" text-anchor="middle" font-family="Helvetica, Arial, sans-serif" font-size="18" font-weight="700" fill="#ffffff">30.0</text>
<rect x="633.6" y="651.7" width="105.2" height="82.3" rx="8" fill="#fff7bc" stroke="#ffffff" stroke-width="1.5"/>
<text x="686.2" y="700.8" text-anchor="middle" font-family="Helvetica, Arial, sans-serif" font-size="18" font-weight="700" fill="#10212b">0.0</text>
<rect x="744.8" y="651.7" width="105.2" height="82.3" rx="8" fill="#3172a3" stroke="#ffffff" stroke-width="1.5"/>
<text x="797.4" y="700.8" text-anchor="middle" font-family="Helvetica, Arial, sans-serif" font-size="18" font-weight="700" fill="#ffffff">33.3</text>
<rect x="856.0" y="651.7" width="105.2" height="82.3" rx="8" fill="#84a8ad" stroke="#ffffff" stroke-width="1.5"/>
<text x="908.6" y="700.8" text-anchor="middle" font-family="Helvetica, Arial, sans-serif" font-size="18" font-weight="700" fill="#ffffff">20.0</text>
<rect x="967.2" y="651.7" width="105.2" height="82.3" rx="8" fill="#edecba" stroke="#ffffff" stroke-width="1.5"/>
<text x="1019.8" y="700.8" text-anchor="middle" font-family="Helvetica, Arial, sans-serif" font-size="18" font-weight="700" fill="#10212b">2.9</text>
<rect x="1078.4" y="651.7" width="105.2" height="82.3" rx="8" fill="#edecba" stroke="#ffffff" stroke-width="1.5"/>
<text x="1131.0" y="700.8" text-anchor="middle" font-family="Helvetica, Arial, sans-serif" font-size="18" font-weight="700" fill="#10212b">2.9</text>
<rect x="1189.6" y="651.7" width="105.2" height="82.3" rx="8" fill="#6292a9" stroke="#ffffff" stroke-width="1.5"/>
<text x="1242.2" y="700.8" text-anchor="middle" font-family="Helvetica, Arial, sans-serif" font-size="18" font-weight="700" fill="#ffffff">25.5</text>
<rect x="1300.8" y="651.7" width="105.2" height="82.3" rx="8" fill="#96b4af" stroke="#ffffff" stroke-width="1.5"/>
<text x="1353.4" y="700.8" text-anchor="middle" font-family="Helvetica, Arial, sans-serif" font-size="18" font-weight="700" fill="#10212b">16.9</text>
<rect x="1430.0" y="740.0" width="20" height="4.79" fill="#fff7bc" stroke="none"/>
<rect x="1430.0" y="736.2" width="20" height="4.79" fill="#fdf6bc" stroke="none"/>
<rect x="1430.0" y="732.4" width="20" height="4.79" fill="#fbf5bc" stroke="none"/>
<rect x="1430.0" y="728.6" width="20" height="4.79" fill="#faf4bb" stroke="none"/>
<rect x="1430.0" y="724.9" width="20" height="4.79" fill="#f8f2bb" stroke="none"/>
<rect x="1430.0" y="721.1" width="20" height="4.79" fill="#f6f1bb" stroke="none"/>
<rect x="1430.0" y="717.3" width="20" height="4.79" fill="#f4f0bb" stroke="none"/>
<rect x="1430.0" y="713.5" width="20" height="4.79" fill="#f3efba" stroke="none"/>
<rect x="1430.0" y="709.7" width="20" height="4.79" fill="#f1eeba" stroke="none"/>
<rect x="1430.0" y="705.9" width="20" height="4.79" fill="#efedba" stroke="none"/>
<rect x="1430.0" y="702.1" width="20" height="4.79" fill="#edecba" stroke="none"/>
<rect x="1430.0" y="698.4" width="20" height="4.79" fill="#ecebba" stroke="none"/>
<rect x="1430.0" y="694.6" width="20" height="4.79" fill="#eae9b9" stroke="none"/>
<rect x="1430.0" y="690.8" width="20" height="4.79" fill="#e8e8b9" stroke="none"/>
<rect x="1430.0" y="687.0" width="20" height="4.79" fill="#e6e7b9" stroke="none"/>
<rect x="1430.0" y="683.2" width="20" height="4.79" fill="#e5e6b9" stroke="none"/>
<rect x="1430.0" y="679.4" width="20" height="4.79" fill="#e3e5b9" stroke="none"/>
<rect x="1430.0" y="675.6" width="20" height="4.79" fill="#e1e4b8" stroke="none"/>
<rect x="1430.0" y="671.9" width="20" height="4.79" fill="#dfe3b8" stroke="none"/>
<rect x="1430.0" y="668.1" width="20" height="4.79" fill="#dde1b8" stroke="none"/>
<rect x="1430.0" y="664.3" width="20" height="4.79" fill="#dce0b8" stroke="none"/>
<rect x="1430.0" y="660.5" width="20" height="4.79" fill="#dadfb8" stroke="none"/>
<rect x="1430.0" y="656.7" width="20" height="4.79" fill="#d8deb7" stroke="none"/>
<rect x="1430.0" y="652.9" width="20" height="4.79" fill="#d6ddb7" stroke="none"/>
<rect x="1430.0" y="649.1" width="20" height="4.79" fill="#d5dcb7" stroke="none"/>
<rect x="1430.0" y="645.4" width="20" height="4.79" fill="#d3dbb7" stroke="none"/>
<rect x="1430.0" y="641.6" width="20" height="4.79" fill="#d1d9b6" stroke="none"/>
<rect x="1430.0" y="637.8" width="20" height="4.79" fill="#cfd8b6" stroke="none"/>
<rect x="1430.0" y="634.0" width="20" height="4.79" fill="#ced7b6" stroke="none"/>
<rect x="1430.0" y="630.2" width="20" height="4.79" fill="#ccd6b6" stroke="none"/>
<rect x="1430.0" y="626.4" width="20" height="4.79" fill="#cad5b6" stroke="none"/>
<rect x="1430.0" y="622.6" width="20" height="4.79" fill="#c8d4b5" stroke="none"/>
<rect x="1430.0" y="618.9" width="20" height="4.79" fill="#c7d3b5" stroke="none"/>
<rect x="1430.0" y="615.1" width="20" height="4.79" fill="#c5d2b5" stroke="none"/>
<rect x="1430.0" y="611.3" width="20" height="4.79" fill="#c3d0b5" stroke="none"/>
<rect x="1430.0" y="607.5" width="20" height="4.79" fill="#c1cfb4" stroke="none"/>
<rect x="1430.0" y="603.7" width="20" height="4.79" fill="#bfceb4" stroke="none"/>
<rect x="1430.0" y="599.9" width="20" height="4.79" fill="#becdb4" stroke="none"/>
<rect x="1430.0" y="596.1" width="20" height="4.79" fill="#bcccb4" stroke="none"/>
<rect x="1430.0" y="592.4" width="20" height="4.79" fill="#bacbb4" stroke="none"/>
<rect x="1430.0" y="588.6" width="20" height="4.79" fill="#b8cab3" stroke="none"/>
<rect x="1430.0" y="584.8" width="20" height="4.79" fill="#b7c8b3" stroke="none"/>
<rect x="1430.0" y="581.0" width="20" height="4.79" fill="#b5c7b3" stroke="none"/>
<rect x="1430.0" y="577.2" width="20" height="4.79" fill="#b3c6b3" stroke="none"/>
<rect x="1430.0" y="573.4" width="20" height="4.79" fill="#b1c5b3" stroke="none"/>
<rect x="1430.0" y="569.6" width="20" height="4.79" fill="#b0c4b2" stroke="none"/>
<rect x="1430.0" y="565.9" width="20" height="4.79" fill="#aec3b2" stroke="none"/>
<rect x="1430.0" y="562.1" width="20" height="4.79" fill="#acc2b2" stroke="none"/>
<rect x="1430.0" y="558.3" width="20" height="4.79" fill="#aac0b2" stroke="none"/>
<rect x="1430.0" y="554.5" width="20" height="4.79" fill="#a9bfb2" stroke="none"/>
<rect x="1430.0" y="550.7" width="20" height="4.79" fill="#a7beb1" stroke="none"/>
<rect x="1430.0" y="546.9" width="20" height="4.79" fill="#a5bdb1" stroke="none"/>
<rect x="1430.0" y="543.1" width="20" height="4.79" fill="#a3bcb1" stroke="none"/>
<rect x="1430.0" y="539.4" width="20" height="4.79" fill="#a1bbb1" stroke="none"/>
<rect x="1430.0" y="535.6" width="20" height="4.79" fill="#a0bab0" stroke="none"/>
<rect x="1430.0" y="531.8" width="20" height="4.79" fill="#9eb9b0" stroke="none"/>
<rect x="1430.0" y="528.0" width="20" height="4.79" fill="#9cb7b0" stroke="none"/>
<rect x="1430.0" y="524.2" width="20" height="4.79" fill="#9ab6b0" stroke="none"/>
<rect x="1430.0" y="520.4" width="20" height="4.79" fill="#99b5b0" stroke="none"/>
<rect x="1430.0" y="516.6" width="20" height="4.79" fill="#97b4af" stroke="none"/>
<rect x="1430.0" y="512.9" width="20" height="4.79" fill="#95b3af" stroke="none"/>
<rect x="1430.0" y="509.1" width="20" height="4.79" fill="#93b2af" stroke="none"/>
<rect x="1430.0" y="505.3" width="20" height="4.79" fill="#92b1af" stroke="none"/>
<rect x="1430.0" y="501.5" width="20" height="4.79" fill="#90afae" stroke="none"/>
<rect x="1430.0" y="497.7" width="20" height="4.79" fill="#8eaeae" stroke="none"/>
<rect x="1430.0" y="493.9" width="20" height="4.79" fill="#8cadae" stroke="none"/>
<rect x="1430.0" y="490.1" width="20" height="4.79" fill="#8bacae" stroke="none"/>
<rect x="1430.0" y="486.4" width="20" height="4.79" fill="#89abae" stroke="none"/>
<rect x="1430.0" y="482.6" width="20" height="4.79" fill="#87aaad" stroke="none"/>
<rect x="1430.0" y="478.8" width="20" height="4.79" fill="#85a9ad" stroke="none"/>
<rect x="1430.0" y="475.0" width="20" height="4.79" fill="#84a8ad" stroke="none"/>
<rect x="1430.0" y="471.2" width="20" height="4.79" fill="#82a6ad" stroke="none"/>
<rect x="1430.0" y="467.4" width="20" height="4.79" fill="#80a5ad" stroke="none"/>
<rect x="1430.0" y="463.6" width="20" height="4.79" fill="#7ea4ac" stroke="none"/>
<rect x="1430.0" y="459.9" width="20" height="4.79" fill="#7ca3ac" stroke="none"/>
<rect x="1430.0" y="456.1" width="20" height="4.79" fill="#7ba2ac" stroke="none"/>
<rect x="1430.0" y="452.3" width="20" height="4.79" fill="#79a1ac" stroke="none"/>
<rect x="1430.0" y="448.5" width="20" height="4.79" fill="#77a0ac" stroke="none"/>
<rect x="1430.0" y="444.7" width="20" height="4.79" fill="#759eab" stroke="none"/>
<rect x="1430.0" y="440.9" width="20" height="4.79" fill="#749dab" stroke="none"/>
<rect x="1430.0" y="437.1" width="20" height="4.79" fill="#729cab" stroke="none"/>
<rect x="1430.0" y="433.4" width="20" height="4.79" fill="#709bab" stroke="none"/>
<rect x="1430.0" y="429.6" width="20" height="4.79" fill="#6e9aaa" stroke="none"/>
<rect x="1430.0" y="425.8" width="20" height="4.79" fill="#6d99aa" stroke="none"/>
<rect x="1430.0" y="422.0" width="20" height="4.79" fill="#6b98aa" stroke="none"/>
<rect x="1430.0" y="418.2" width="20" height="4.79" fill="#6996aa" stroke="none"/>
<rect x="1430.0" y="414.4" width="20" height="4.79" fill="#6795aa" stroke="none"/>
<rect x="1430.0" y="410.6" width="20" height="4.79" fill="#6694a9" stroke="none"/>
<rect x="1430.0" y="406.9" width="20" height="4.79" fill="#6493a9" stroke="none"/>
<rect x="1430.0" y="403.1" width="20" height="4.79" fill="#6292a9" stroke="none"/>
<rect x="1430.0" y="399.3" width="20" height="4.79" fill="#6091a9" stroke="none"/>
<rect x="1430.0" y="395.5" width="20" height="4.79" fill="#5e90a8" stroke="none"/>
<rect x="1430.0" y="391.7" width="20" height="4.79" fill="#5d8fa8" stroke="none"/>
<rect x="1430.0" y="387.9" width="20" height="4.79" fill="#5b8da8" stroke="none"/>
<rect x="1430.0" y="384.1" width="20" height="4.79" fill="#598ca8" stroke="none"/>
<rect x="1430.0" y="380.4" width="20" height="4.79" fill="#578ba8" stroke="none"/>
<rect x="1430.0" y="376.6" width="20" height="4.79" fill="#568aa7" stroke="none"/>
<rect x="1430.0" y="372.8" width="20" height="4.79" fill="#5489a7" stroke="none"/>
<rect x="1430.0" y="369.0" width="20" height="4.79" fill="#5288a7" stroke="none"/>
<rect x="1430.0" y="365.2" width="20" height="4.79" fill="#5087a7" stroke="none"/>
<rect x="1430.0" y="361.4" width="20" height="4.79" fill="#4f85a7" stroke="none"/>
<rect x="1430.0" y="357.6" width="20" height="4.79" fill="#4d84a6" stroke="none"/>
<rect x="1430.0" y="353.9" width="20" height="4.79" fill="#4b83a6" stroke="none"/>
<rect x="1430.0" y="350.1" width="20" height="4.79" fill="#4982a6" stroke="none"/>
<rect x="1430.0" y="346.3" width="20" height="4.79" fill="#4881a6" stroke="none"/>
<rect x="1430.0" y="342.5" width="20" height="4.79" fill="#4680a6" stroke="none"/>
<rect x="1430.0" y="338.7" width="20" height="4.79" fill="#447fa5" stroke="none"/>
<rect x="1430.0" y="334.9" width="20" height="4.79" fill="#427da5" stroke="none"/>
<rect x="1430.0" y="331.1" width="20" height="4.79" fill="#407ca5" stroke="none"/>
<rect x="1430.0" y="327.4" width="20" height="4.79" fill="#3f7ba5" stroke="none"/>
<rect x="1430.0" y="323.6" width="20" height="4.79" fill="#3d7aa4" stroke="none"/>
<rect x="1430.0" y="319.8" width="20" height="4.79" fill="#3b79a4" stroke="none"/>
<rect x="1430.0" y="316.0" width="20" height="4.79" fill="#3978a4" stroke="none"/>
<rect x="1430.0" y="312.2" width="20" height="4.79" fill="#3877a4" stroke="none"/>
<rect x="1430.0" y="308.4" width="20" height="4.79" fill="#3676a4" stroke="none"/>
<rect x="1430.0" y="304.6" width="20" height="4.79" fill="#3474a3" stroke="none"/>
<rect x="1430.0" y="300.9" width="20" height="4.79" fill="#3273a3" stroke="none"/>
<rect x="1430.0" y="297.1" width="20" height="4.79" fill="#3172a3" stroke="none"/>
<rect x="1430.0" y="293.3" width="20" height="4.79" fill="#2f71a3" stroke="none"/>
<rect x="1430.0" y="289.5" width="20" height="4.79" fill="#2d70a2" stroke="none"/>
<rect x="1430.0" y="285.7" width="20" height="4.79" fill="#2b6fa2" stroke="none"/>
<rect x="1430.0" y="281.9" width="20" height="4.79" fill="#2a6ea2" stroke="none"/>
<rect x="1430.0" y="278.1" width="20" height="4.79" fill="#286ca2" stroke="none"/>
<rect x="1430.0" y="274.4" width="20" height="4.79" fill="#266ba2" stroke="none"/>
<rect x="1430.0" y="270.6" width="20" height="4.79" fill="#246aa1" stroke="none"/>
<rect x="1430.0" y="266.8" width="20" height="4.79" fill="#2269a1" stroke="none"/>
<rect x="1430.0" y="263.0" width="20" height="4.79" fill="#2168a1" stroke="none"/>
<rect x="1430.0" y="259.2" width="20" height="4.79" fill="#1f67a1" stroke="none"/>
<rect x="1430.0" y="255.4" width="20" height="4.79" fill="#1d66a1" stroke="none"/>
<rect x="1430.0" y="251.6" width="20" height="4.79" fill="#1b64a0" stroke="none"/>
<rect x="1430.0" y="247.9" width="20" height="4.79" fill="#1a63a0" stroke="none"/>
<rect x="1430.0" y="244.1" width="20" height="4.79" fill="#1862a0" stroke="none"/>
<rect x="1430.0" y="240.3" width="20" height="4.79" fill="#1661a0" stroke="none"/>
<rect x="1430.0" y="236.5" width="20" height="4.79" fill="#1460a0" stroke="none"/>
<rect x="1430.0" y="232.7" width="20" height="4.79" fill="#135f9f" stroke="none"/>
<rect x="1430.0" y="228.9" width="20" height="4.79" fill="#115e9f" stroke="none"/>
<rect x="1430.0" y="225.1" width="20" height="4.79" fill="#0f5d9f" stroke="none"/>
<rect x="1430.0" y="221.4" width="20" height="4.79" fill="#0d5b9f" stroke="none"/>
<rect x="1430.0" y="217.6" width="20" height="4.79" fill="#0c5a9e" stroke="none"/>
<rect x="1430.0" y="213.8" width="20" height="4.79" fill="#0a599e" stroke="none"/>
<text x="1460.0" y="218.0" font-family="Helvetica, Arial, sans-serif" font-size="16" fill="#555">40</text>
<text x="1460.0" y="740.0" font-family="Helvetica, Arial, sans-serif" font-size="16" fill="#555">0</text>
<text x="1482.0" y="475.0" transform="rotate(90 1482.0,475.0)" font-family="Helvetica, Arial, sans-serif" font-size="16" fill="#555">Completion (%)</text>
<text x="120" y="870" font-family="Helvetica, Arial, sans-serif" font-size="22" font-weight="700" fill="#151515">Reading</text>
<text x="230" y="870" font-family="Helvetica, Arial, sans-serif" font-size="20" fill="#333">Darker cells indicate stronger partial progress. Each value is a per-case subtask completion percentage.</text>
</svg>